<?xml version="1.0" standalone="no"?>
<!DOCTYPE svg PUBLIC "-//W3C//DTD SVG 20010904//EN"
 "http://www.w3.org/TR/2001/REC-SVG-20010904/DTD/svg10.dtd">
<svg version="1.0" xmlns="http://www.w3.org/2000/svg"
 width="632.000000pt" height="632.000000pt" viewBox="0 0 632.000000 632.000000"
 preserveAspectRatio="xMidYMid meet">
<metadata>
Created by potrace 1.14, written by Peter Selinger 2001-2017
</metadata>
<g transform="translate(0.000000,632.000000) scale(0.100000,-0.100000)"
fill="#000000" stroke="none">
<path d="M0 3160 l0 -3160 1096 0 c999 0 1096 1 1090 16 -20 51 -18 61 8 61
29 1 30 -1 17 -26 -6 -11 -6 -23 0 -32 8 -11 9 -10 7 6 -4 25 25 22 55 -6 20
-18 63 -19 2034 -19 l2013 0 0 3160 0 3160 -219 0 -219 0 11 -37 c6 -21 15
-41 20 -44 5 -4 7 -11 3 -17 -3 -5 8 -24 24 -42 17 -18 33 -44 36 -59 3 -14
12 -44 20 -66 20 -57 18 -118 -6 -160 l-20 -35 24 6 c18 4 27 1 35 -14 13 -25
14 -32 2 -32 -5 0 -11 8 -13 18 -2 9 -4 -32 -3 -91 0 -82 -3 -110 -14 -116 -8
-5 -11 -16 -8 -25 4 -9 3 -16 -2 -16 -14 0 -22 79 -10 101 6 12 9 32 6 45 -3
16 0 24 9 24 8 0 14 4 14 8 0 10 -21 32 -31 32 -9 0 -19 -63 -19 -112 1 -20
-4 -39 -10 -43 -16 -10 -12 -45 5 -45 8 0 15 -7 15 -16 0 -8 -4 -13 -8 -10 -5
3 -7 -8 -4 -23 4 -31 -15 -52 -28 -31 -11 18 -22 -37 -16 -82 3 -26 0 -38 -10
-42 -14 -5 -21 -86 -8 -99 10 -10 74 26 74 41 0 8 -9 16 -20 19 -11 3 -20 10
-20 17 0 20 18 39 32 34 20 -8 82 -134 75 -153 -9 -22 -37 -19 -37 5 0 11 -4
20 -10 20 -5 0 -10 -4 -10 -8 0 -5 -11 -14 -25 -20 -28 -13 -44 -57 -26 -75 8
-8 11 -5 11 11 0 12 4 22 9 22 5 0 11 9 14 20 6 23 27 27 27 5 0 -9 -12 -34
-26 -56 -16 -26 -23 -47 -18 -57 6 -16 7 -15 11 1 3 10 14 17 28 17 16 0 30
11 44 36 12 19 25 33 31 29 12 -8 1 -35 -14 -35 -8 0 -11 -11 -8 -32 4 -28 2
-30 -17 -25 -17 4 -21 1 -21 -19 0 -29 11 -31 28 -4 7 11 21 20 31 20 11 0 23
6 28 13 7 11 15 -19 30 -115 4 -30 2 -38 -11 -38 -18 0 -40 -35 -32 -53 2 -7
5 -5 5 5 2 28 75 -2 79 -32 3 -17 0 -21 -12 -17 -9 4 -16 2 -16 -3 0 -15 -17
-12 -34 6 -15 14 -16 13 -16 -10 0 -28 26 -36 48 -14 9 9 12 8 12 -5 0 -9 3
-17 8 -17 4 0 8 -23 9 -51 1 -28 8 -57 14 -65 11 -13 5 -28 -21 -54 -7 -7 -30
-49 -30 -55 0 -3 6 -5 14 -5 14 0 26 -21 26 -46 0 -8 -8 -14 -18 -14 -24 0
-32 -8 -25 -26 4 -10 9 -12 18 -4 9 8 14 5 18 -9 6 -24 -6 -43 -23 -39 -8 2
-16 -5 -18 -14 -2 -11 2 -18 11 -18 10 0 13 -10 12 -32 -3 -33 -23 -91 -25
-73 -2 17 -19 -28 -19 -53 -1 -26 -26 -56 -40 -48 -13 8 -21 -18 -14 -45 5
-18 3 -21 -11 -16 -22 9 -33 -19 -18 -44 15 -23 15 -59 2 -79 -9 -13 -12 -13
-21 3 -12 21 -29 22 -29 2 0 -21 -30 -66 -40 -60 -19 12 -19 -16 0 -32 26 -22
26 -49 0 -63 -26 -14 -39 12 -19 37 12 15 12 16 -4 10 -10 -4 -23 -7 -28 -7
-5 0 -9 -9 -9 -20 0 -13 -5 -18 -15 -14 -9 4 -15 0 -15 -9 0 -9 -7 -17 -16
-19 -13 -3 -13 -6 4 -23 19 -20 19 -20 -1 -38 -11 -9 -26 -17 -33 -17 -7 0
-14 -10 -16 -22 -2 -15 -11 -24 -24 -26 -16 -2 -29 -20 -47 -62 -14 -32 -31
-61 -38 -66 -9 -5 -10 -2 -5 11 4 12 0 24 -13 37 -27 24 -39 23 -16 -2 21 -23
13 -39 -10 -20 -9 7 -18 10 -21 7 -10 -10 20 -47 38 -47 10 0 18 -4 18 -8 0
-12 -34 -42 -48 -42 -7 0 -12 -5 -12 -11 0 -5 -4 -7 -10 -4 -5 3 -10 -1 -10
-9 0 -9 -7 -16 -15 -16 -20 0 -19 9 4 34 22 25 35 72 21 81 -6 3 -13 -2 -17
-12 -4 -10 -13 -24 -20 -31 -7 -7 -13 -20 -13 -29 0 -19 -24 -11 -28 10 -2 10
7 21 22 28 16 7 26 20 26 32 0 19 -2 18 -29 -7 -16 -15 -33 -27 -38 -27 -4 1
-9 -8 -11 -20 -3 -15 -9 -20 -23 -16 -11 3 -25 0 -32 -6 -15 -14 -98 -51 -149
-67 -21 -6 -38 -17 -38 -23 0 -7 -5 -4 -11 6 -7 11 -17 16 -29 12 -12 -4 -22
0 -28 11 -6 11 -11 13 -16 5 -4 -6 -16 -11 -27 -11 -12 0 -19 -7 -19 -20 0
-10 -5 -31 -12 -45 -11 -23 -9 -29 15 -48 33 -28 46 -74 23 -83 -31 -12 -16
-22 28 -19 24 2 49 5 54 9 28 17 135 -48 215 -131 45 -47 66 -80 106 -174 69
-159 84 -210 136 -466 30 -146 45 -247 45 -297 0 -82 26 -392 39 -468 4 -26 5
-51 1 -57 -8 -14 -57 -8 -96 12 -29 15 -41 15 -130 2 -53 -8 -144 -15 -201
-15 -102 0 -104 0 -113 26 -6 14 -10 51 -10 82 0 31 -9 158 -21 281 -15 148
-19 229 -13 239 7 10 5 41 -4 91 -13 68 -12 76 3 87 18 13 31 74 21 99 -9 25
-46 0 -46 -31 0 -33 -46 -53 -69 -29 -13 12 -13 19 -4 34 10 16 9 26 -3 50
-14 27 -13 33 1 55 15 22 15 27 2 46 -28 40 6 110 53 110 14 0 29 3 33 6 11
11 -21 34 -37 28 -9 -3 -23 -1 -31 6 -11 9 -15 9 -15 1 0 -7 -4 -10 -10 -6 -6
3 -5 15 2 30 10 21 8 29 -10 48 -23 25 -29 71 -11 82 7 5 8 25 4 55 -5 37 -3
54 10 74 17 25 48 35 59 17 10 -16 45 -19 50 -5 7 18 -21 45 -39 37 -19 -7
-45 14 -45 37 0 9 -11 22 -25 28 -14 6 -25 16 -25 22 0 20 -27 10 -40 -15 -11
-21 -11 -27 3 -43 20 -21 22 -53 6 -69 -9 -9 -8 -21 4 -50 13 -34 13 -41 0
-68 -12 -22 -13 -33 -4 -47 16 -25 14 -48 -6 -70 -14 -16 -15 -23 -5 -38 20
-33 15 -60 -12 -60 -31 0 -48 22 -41 52 4 17 0 29 -14 42 -25 23 -27 53 -5 77
14 16 14 20 0 48 -12 22 -13 36 -6 53 14 35 35 58 53 58 9 0 19 4 22 10 3 5
-3 10 -13 10 -23 0 -33 19 -26 47 3 11 -2 25 -10 32 -9 8 -16 23 -16 35 0 17
-2 18 -10 6 -8 -12 -10 -12 -9 5 0 11 4 39 8 63 5 23 5 45 0 48 -13 7 -11 48
2 61 16 16 39 5 39 -19 0 -16 3 -18 13 -10 7 6 18 7 26 2 11 -6 9 -12 -8 -26
-26 -23 -27 -46 -3 -67 26 -24 39 -21 46 8 4 17 1 31 -9 41 -12 12 -13 20 -5
29 8 9 8 15 0 20 -16 10 -3 24 38 41 46 19 77 47 92 85 17 40 45 39 37 -1 -8
-38 11 -50 34 -21 14 17 16 28 9 41 -5 9 -7 20 -4 22 2 3 -2 17 -9 31 -14 27
-14 27 -32 7 -10 -11 -21 -20 -25 -20 -15 0 -18 55 -4 74 18 27 18 37 -2 29
-10 -4 -17 1 -21 16 -3 11 -11 21 -17 21 -7 0 -18 22 -26 50 -7 27 -20 52 -28
55 -24 9 -42 -14 -36 -45 7 -30 -12 -51 -22 -25 -6 14 -7 14 -18 -1 -11 -14
-15 -13 -39 16 -28 33 -34 50 -17 50 6 0 10 -4 10 -10 0 -5 5 -10 10 -10 15 0
12 30 -6 47 -20 21 -2 42 20 24 12 -10 19 -9 36 7 20 19 20 19 1 43 -16 20
-21 21 -34 10 -13 -10 -18 -8 -31 18 -9 16 -13 38 -9 48 4 13 -3 10 -25 -10
-48 -45 -95 -18 -108 61 -6 38 -5 42 14 42 35 0 50 10 45 31 -5 19 12 28 19 8
5 -16 38 1 38 21 0 10 -10 24 -22 32 -18 12 -20 18 -11 30 8 10 9 24 4 44 -9
29 -9 29 -10 -8 -1 -22 -6 -38 -13 -38 -6 0 -8 -3 -5 -7 12 -12 -23 -41 -44
-36 -16 4 -19 13 -17 46 3 35 0 42 -17 45 -40 6 -63 24 -58 43 3 10 0 19 -6
19 -6 0 -11 -4 -11 -10 0 -20 -21 -10 -32 16 l-12 25 -12 -22 c-19 -36 -4 -65
29 -60 4 1 13 -10 19 -24 6 -14 18 -25 25 -25 8 0 11 -5 8 -10 -4 -6 -1 -17 5
-25 6 -8 9 -18 6 -23 -3 -6 1 -15 8 -21 12 -10 12 -16 2 -36 -23 -44 -139
-135 -172 -135 -13 0 -15 -5 -9 -22 5 -13 9 -43 10 -68 1 -35 5 -44 17 -42 24
4 60 -46 52 -72 -17 -56 -68 -73 -104 -34 -15 16 -20 35 -20 75 0 48 -3 54
-26 63 -14 6 -29 8 -34 5 -4 -3 -10 4 -13 15 -4 16 -14 20 -45 20 -43 0 -72
23 -72 57 0 13 -13 29 -36 42 l-36 21 7 68 c8 70 -2 77 -20 14 -8 -28 -18 -39
-40 -47 -17 -5 -41 -20 -53 -33 -20 -20 -22 -30 -17 -62 4 -21 2 -40 -2 -43
-11 -7 -93 12 -110 26 -10 7 -13 4 -13 -11 0 -28 -15 -35 -30 -17 -11 13 -10
21 1 41 11 22 11 27 -1 34 -16 11 -50 13 -50 5 0 -3 8 -22 18 -43 10 -20 17
-45 14 -56 -3 -15 8 -50 25 -75 1 -2 21 13 43 33 l40 36 35 -35 c44 -43 48
-86 10 -103 -31 -14 -74 -15 -94 -3 -10 6 -18 5 -25 -4 -9 -11 -16 -7 -36 20
-14 19 -30 35 -37 35 -6 0 -27 15 -46 32 -71 67 -156 94 -202 64 -30 -20 -59
-20 -75 -1 -16 20 -44 20 -36 0 3 -9 0 -15 -9 -15 -8 0 -32 -9 -54 -21 -22
-11 -44 -18 -49 -15 -24 15 -160 -26 -205 -62 -7 -5 -29 -12 -49 -15 -20 -3
-59 -22 -87 -44 -49 -37 -71 -74 -71 -118 0 -12 -9 -34 -20 -48 -23 -29 -26
-65 -6 -73 12 -4 13 -12 5 -32 -6 -14 -8 -36 -5 -48 3 -12 -3 -41 -13 -65 -24
-55 -38 -149 -22 -149 6 0 11 -11 11 -24 0 -14 5 -28 10 -31 6 -3 10 3 10 13
0 35 44 104 73 115 11 4 34 -2 57 -13 22 -11 46 -20 55 -20 18 0 19 -4 3 -29
-18 -29 -3 -54 28 -47 18 5 24 3 19 -4 -4 -7 3 -18 14 -27 15 -10 20 -21 15
-35 -5 -16 -2 -19 13 -14 11 4 45 -7 86 -28 108 -56 241 -64 336 -21 29 14 65
25 80 25 15 0 31 8 39 20 7 11 23 20 37 20 18 0 28 7 35 25 5 14 15 26 22 26
7 1 29 3 48 4 32 3 82 21 120 45 8 5 26 11 40 14 26 5 60 58 60 91 0 8 5 15
10 15 6 0 10 12 10 26 0 22 -4 25 -20 21 -19 -5 -20 -2 -14 29 3 19 3 42 -1
51 -4 10 -7 30 -6 44 1 15 -5 43 -13 64 -20 48 -20 118 0 231 3 17 1 47 -4 67
-7 25 -7 39 0 43 12 8 69 -57 63 -73 -2 -7 1 -18 8 -26 7 -7 19 -26 27 -42 9
-17 25 -34 37 -40 22 -9 45 -59 58 -122 5 -24 12 -33 26 -33 21 0 26 -29 8
-47 -8 -8 -8 -17 -1 -30 10 -17 11 -16 21 7 l10 25 1 -30 c1 -16 1 -47 0 -67
-1 -22 3 -38 9 -38 6 0 11 -7 11 -15 0 -8 -5 -15 -12 -15 -9 0 -9 -3 0 -12 7
-7 12 -20 12 -29 0 -10 11 -38 24 -64 22 -40 30 -86 27 -150 -1 -13 -15 -28
-36 -39 -19 -11 -35 -23 -35 -28 0 -18 -3 -23 -21 -36 -19 -13 -15 -42 6 -42
8 0 11 -8 8 -20 -3 -11 -9 -20 -14 -20 -5 0 -9 -9 -9 -20 0 -11 -4 -20 -10
-20 -5 0 -10 -14 -10 -30 0 -17 -4 -38 -9 -48 -26 -49 -41 -93 -41 -122 0 -24
-4 -31 -15 -27 -10 5 -16 -4 -21 -31 -6 -36 -26 -75 -50 -99 -7 -7 -22 -28
-34 -48 -17 -28 -26 -34 -44 -29 -15 3 -23 1 -24 -8 -6 -49 -16 -78 -31 -83
-9 -3 -25 -17 -35 -32 -17 -23 -20 -34 -25 -82 0 -8 -7 -11 -17 -7 -8 3 -12 2
-9 -4 6 -10 -33 -50 -49 -50 -6 0 -5 -5 2 -12 21 -21 13 -28 -37 -28 -30 0
-51 5 -54 13 -4 9 -6 9 -6 0 -1 -6 4 -15 9 -18 8 -5 7 -12 -2 -22 -11 -14 -9
-15 20 -11 27 4 32 1 33 -16 1 -17 2 -18 6 -3 7 25 22 21 29 -8 7 -28 24 -24
24 6 0 10 7 19 15 19 8 0 15 -4 15 -10 0 -5 -5 -10 -11 -10 -6 0 -4 -7 5 -15
8 -8 21 -15 28 -15 7 0 24 -7 36 -16 19 -13 21 -19 11 -30 -10 -12 -8 -16 9
-21 12 -3 23 -9 23 -14 1 -5 2 -13 3 -18 2 -18 16 -24 16 -8 0 20 13 22 29 4
13 -17 5 -27 -23 -27 -18 -1 -16 -3 7 -13 26 -11 27 -14 13 -32 -13 -18 -12
-22 12 -43 18 -16 23 -25 14 -28 -6 -3 -12 -15 -12 -25 0 -11 5 -17 10 -14 6
3 10 -3 10 -14 0 -15 -6 -21 -23 -21 -30 0 -55 -53 -36 -76 10 -13 8 -19 -14
-38 -15 -13 -27 -33 -27 -45 0 -23 -16 -29 -23 -8 -6 18 -19 2 -21 -27 0 -14
-7 -26 -13 -26 -7 0 -13 -11 -13 -25 0 -30 -26 -34 -35 -5 -7 23 -35 27 -35 6
0 -8 8 -28 17 -44 16 -29 16 -30 -8 -53 -13 -14 -24 -35 -23 -49 0 -14 -5 -37
-12 -51 -7 -15 -10 -29 -7 -33 4 -3 2 -6 -4 -6 -6 0 -16 -13 -23 -30 -13 -31
-49 -60 -74 -60 -9 0 -18 -11 -22 -25 -3 -14 -10 -25 -15 -25 -5 0 -14 -11
-19 -25 -5 -14 -16 -25 -24 -25 -7 0 -16 -7 -20 -15 -4 -11 -13 -14 -33 -9
-26 7 -27 6 -13 -11 14 -16 13 -17 -7 -11 -12 4 -24 2 -28 -4 -4 -6 -15 -8
-25 -5 -13 4 -27 -6 -50 -34 -21 -28 -44 -44 -71 -51 -21 -6 -39 -15 -39 -20
0 -10 -48 -26 -108 -35 -27 -4 -46 -14 -52 -26 -6 -11 -21 -19 -35 -19 -14 0
-25 -5 -25 -11 0 -6 -7 -3 -16 5 -17 17 -50 21 -58 8 -6 -10 -66 -3 -82 9 -27
22 -90 36 -121 27 -25 -7 -40 -4 -70 12 -21 11 -47 20 -59 20 -17 0 -20 5 -16
25 2 15 0 25 -7 25 -6 0 -17 11 -23 25 -7 16 -19 25 -34 25 -30 0 -36 12 -37
68 -1 44 28 111 41 97 3 -3 17 6 31 19 24 22 54 32 126 41 17 2 78 11 137 19
59 9 113 13 121 10 8 -2 20 2 27 11 7 8 19 15 27 15 11 0 13 4 5 13 -5 6 -6
21 -3 31 7 18 8 18 14 2 5 -13 11 -15 24 -7 18 9 25 11 44 11 6 0 3 7 -5 16
-20 20 -21 58 -1 74 8 7 15 18 15 25 0 7 23 27 50 45 44 28 50 36 50 66 0 19
-4 34 -9 34 -12 0 -32 -26 -25 -33 8 -8 -70 -47 -93 -47 -10 0 -35 -11 -55
-25 -50 -34 -78 -44 -135 -46 -26 -1 -53 -6 -59 -11 -6 -4 -53 -10 -104 -12
-73 -2 -100 1 -129 15 -21 10 -49 21 -62 24 -14 3 -33 20 -43 36 -10 17 -20
28 -24 25 -3 -3 -14 8 -24 25 -20 33 -16 69 8 69 9 0 12 -5 8 -11 -5 -9 7 -10
44 -5 31 4 51 3 54 -4 2 -6 23 -6 63 1 33 6 71 12 85 12 14 1 27 4 30 8 3 3
50 16 105 28 55 12 111 26 125 32 14 5 80 11 147 13 106 4 129 8 174 30 28 14
61 26 73 26 31 0 36 7 25 40 -11 31 -45 41 -161 46 -36 1 -75 7 -85 12 -10 5
-23 7 -29 5 -6 -2 -36 5 -65 17 -34 13 -90 23 -151 27 -100 6 -112 4 -205 -39
-41 -19 -45 -19 -95 -3 -29 9 -66 23 -82 32 -16 9 -43 18 -59 19 -17 2 -32 6
-34 8 -5 5 22 49 47 79 8 10 20 32 26 50 7 22 20 35 40 41 42 12 83 35 129 71
76 59 119 76 198 78 82 3 96 11 121 72 24 58 19 138 -10 149 -8 3 -23 -4 -34
-16 -15 -17 -30 -21 -67 -19 -69 3 -85 6 -116 19 -39 16 -52 15 -97 -8 -30
-15 -59 -20 -124 -20 -83 0 -85 1 -107 31 -24 34 -22 73 6 133 11 24 15 47 11
69 -3 18 -2 47 4 63 5 16 11 72 14 124 4 91 20 188 36 220 7 15 -3 233 -14
279 -3 12 -14 39 -25 57 l-21 35 25 9 c21 8 25 15 23 50 -1 22 -6 40 -11 40
-6 0 -25 16 -44 35 -19 19 -38 35 -43 35 -5 0 -10 12 -12 27 -3 24 -7 27 -48
30 -35 2 -50 9 -67 30 -12 15 -19 31 -16 37 4 5 -1 7 -10 3 -10 -3 -17 -2 -17
2 0 5 -15 19 -34 30 -44 27 -51 48 -26 69 25 21 33 89 10 83 -41 -11 -82 -12
-94 -2 -15 13 -39 -7 -35 -31 3 -24 -1 -38 -11 -38 -5 0 -10 10 -10 22 0 12
-3 18 -7 14 -4 -4 -8 -17 -8 -29 0 -20 -5 -22 -49 -20 -33 1 -52 7 -58 17 -5
9 -15 13 -25 9 -13 -5 -15 -2 -8 18 15 46 18 131 4 139 -24 16 -41 -1 -36 -36
6 -38 -15 -66 -35 -46 -7 7 -21 12 -31 12 -17 0 -19 5 -14 34 7 42 -10 52 -59
36 -40 -14 -54 -7 -54 26 0 23 12 29 48 25 14 -2 16 35 2 44 -15 10 -12 46 7
67 15 17 15 18 -3 18 -11 0 -25 -5 -30 -10 -18 -18 -40 -1 -50 40 -8 27 -8 42
-1 49 6 6 13 30 16 53 7 48 34 60 39 18 6 -38 31 -61 52 -50 16 8 17 14 7 39
-9 25 -8 33 8 50 10 12 24 21 31 21 20 0 26 18 19 60 -6 37 -8 38 -32 27 -23
-10 -28 -8 -49 18 -14 17 -33 30 -46 30 -20 0 -23 5 -23 38 0 27 -6 41 -18 49
-15 8 -17 18 -13 46 15 97 16 120 1 126 -9 3 -12 0 -8 -10 3 -8 -1 -14 -11
-14 -9 0 -16 -7 -16 -15 0 -8 -6 -15 -13 -15 -8 0 -24 -11 -37 -25 -26 -28
-45 -32 -57 -12 -12 19 -66 41 -61 25 3 -7 15 -15 27 -18 25 -6 30 -22 9 -31
-7 -3 -23 -11 -35 -17 -13 -7 -30 -12 -38 -12 -8 0 -15 -9 -15 -19 0 -11 -4
-23 -10 -26 -5 -3 -10 -33 -10 -66 0 -56 -1 -59 -20 -49 -18 10 -19 8 -13 -22
3 -18 17 -44 30 -57 25 -26 30 -41 12 -41 -8 0 -8 -5 1 -15 7 -8 10 -22 6 -30
-3 -8 -1 -15 4 -15 6 0 10 -9 10 -19 0 -11 5 -23 11 -27 6 -3 8 -18 5 -33 -3
-14 -3 -20 0 -13 4 9 11 5 20 -13 18 -36 18 -36 -10 -29 -18 4 -25 1 -29 -15
-3 -12 -1 -24 4 -27 10 -6 12 -97 2 -107 -3 -4 -12 -2 -20 4 -9 9 -17 8 -28
-1 -8 -6 -23 -9 -35 -5 -22 7 -28 35 -6 35 15 0 26 21 26 52 0 29 -44 21 -48
-9 -2 -13 -10 -23 -19 -23 -13 0 -15 9 -10 46 4 38 1 50 -16 67 -15 15 -20 32
-19 57 2 23 -3 42 -13 50 -12 10 -15 10 -15 -3 0 -13 -28 -27 -57 -27 -7 0
-13 11 -13 24 0 16 -13 35 -36 54 -45 37 -42 60 11 87 22 11 42 21 44 22 6 4
-30 93 -38 93 -4 0 -12 -5 -19 -12 -9 -9 -13 -7 -18 8 -13 43 -23 60 -23 43
-1 -27 -31 -32 -42 -6 -7 17 -8 14 -3 -17 4 -27 1 -42 -8 -47 -10 -7 -8 -10 8
-15 16 -4 20 -11 16 -30 -2 -14 0 -24 7 -24 15 0 14 -43 -1 -59 -11 -10 -9
-15 6 -27 19 -13 19 -15 2 -33 -15 -17 -16 -25 -6 -55 14 -45 30 -55 30 -21 0
17 5 25 12 23 7 -3 13 -10 13 -15 0 -6 3 -15 8 -19 13 -14 8 -72 -8 -78 -20
-7 -19 -26 0 -26 13 0 15 -12 13 -67 l-3 -68 -34 0 c-26 0 -35 5 -43 25 -9 23
-10 24 -20 7 -5 -10 -8 -20 -6 -21 1 -1 19 -15 39 -29 20 -15 43 -27 52 -27
22 0 22 -18 0 -42 -9 -10 -14 -21 -11 -24 3 -3 14 4 24 14 18 20 20 20 42 2
12 -10 22 -24 22 -30 0 -10 -4 -9 -15 0 -25 21 -27 5 -4 -34 17 -29 19 -39 9
-51 -7 -8 -19 -15 -26 -15 -19 0 -17 -19 3 -27 10 -4 23 2 34 15 18 23 49 30
49 11 0 -6 -9 -13 -19 -16 -15 -4 -18 -10 -12 -27 11 -31 2 -56 -20 -56 -12 0
-19 7 -19 20 0 18 -3 19 -20 8 -13 -8 -18 -19 -14 -34 8 -31 -9 -37 -36 -14
-25 22 -45 25 -55 10 -9 -14 -25 -3 -25 17 0 10 6 14 20 10 15 -4 20 0 20 15
0 14 -5 18 -16 14 -9 -3 -22 -6 -31 -6 -9 0 -13 -6 -9 -15 4 -13 2 -14 -14 -5
-11 6 -20 15 -20 20 0 6 -4 10 -10 10 -5 0 -10 -7 -10 -15 0 -16 -18 -19 -37
-7 -16 10 11 52 33 52 8 0 14 5 14 10 0 6 -7 10 -15 10 -8 0 -15 9 -15 20 0
11 7 20 15 20 9 0 15 10 16 28 0 15 2 46 4 69 3 35 -1 45 -20 57 -28 19 -53
12 -57 -15 -3 -18 -4 -18 -32 4 l-28 23 27 32 c15 18 33 32 41 32 8 0 14 5 14
10 0 6 -11 10 -24 10 -13 0 -27 7 -30 16 -11 28 -7 37 11 23 13 -11 17 -11 20
-1 3 6 14 12 26 12 29 1 77 39 59 47 -7 3 -17 16 -22 29 -7 16 -17 24 -34 24
-14 0 -28 5 -31 10 -3 6 -15 10 -27 10 -11 0 -29 12 -41 26 -18 24 -22 25 -32
10 -11 -15 -14 -14 -29 8 -27 43 -22 47 50 40 l67 -7 -7 45 c-7 45 -7 45 19
40 37 -7 75 16 75 45 0 26 -15 31 -24 7 -8 -20 -29 -7 -23 15 3 12 -3 16 -22
16 -23 0 -27 5 -34 48 -9 46 -19 58 -32 37 -10 -16 -45 8 -45 32 0 17 4 19 28
13 64 -16 77 -12 77 20 0 25 -4 30 -22 28 -16 -2 -21 1 -16 13 7 19 55 44 87
44 27 0 56 23 56 46 0 8 -7 14 -15 14 -9 0 -18 6 -21 14 -3 8 -11 13 -18 10
-14 -5 -36 17 -40 38 -3 20 -16 38 -28 38 -6 0 -8 -10 -4 -25 8 -30 -9 -33
-24 -5 -6 11 -20 20 -30 20 -11 0 -20 3 -21 8 -1 4 -3 35 -4 69 -3 50 -1 61
11 56 8 -3 14 -10 14 -16 0 -6 2 -8 5 -5 3 2 0 19 -6 36 -9 26 -8 33 10 51 25
25 28 83 6 101 -13 11 -14 8 -9 -18 6 -29 5 -30 -34 -29 -39 1 -41 2 -47 39
-4 21 -12 38 -19 38 -21 0 -69 -50 -71 -74 -1 -11 -5 -20 -8 -18 -4 1 -14 2
-22 2 -22 0 -18 38 5 50 13 7 20 21 20 40 0 31 13 39 26 18 5 -7 10 -4 15 10
5 14 14 20 24 16 15 -6 17 -3 19 51 1 20 6 30 17 30 9 0 27 8 40 16 24 16 24
17 5 38 -11 11 -25 21 -33 21 -7 0 -13 4 -13 9 0 5 -9 11 -19 14 -14 3 -21 -1
-23 -14 -2 -11 -7 -20 -13 -20 -5 0 -14 -7 -18 -15 -4 -8 -15 -14 -22 -14 -8
0 -15 -9 -15 -19 0 -11 -5 -23 -10 -26 -11 -7 -11 23 -1 70 4 21 9 26 15 17 6
-10 11 -10 22 -1 10 8 12 23 8 49 l-6 39 38 3 c31 2 40 8 42 24 2 11 -4 27
-13 34 -17 14 -20 30 -5 30 5 0 16 -13 25 -30 13 -25 22 -30 50 -30 38 0 68
33 40 44 -8 3 -15 12 -15 21 0 20 -10 19 -25 -2 -15 -20 -45 -11 -52 17 -6 23
-19 26 -26 8 -3 -8 -6 -6 -6 5 -1 9 4 17 10 17 8 0 7 5 -2 16 -11 14 -11 18 2
28 21 15 24 93 4 113 -14 14 -12 33 3 33 16 0 42 -63 36 -86 -6 -25 10 -34 19
-11 4 10 6 10 6 0 1 -8 15 -13 34 -13 18 0 43 -7 55 -16 21 -14 22 -14 22 10
0 14 5 26 10 26 10 0 14 -13 11 -40 -1 -11 1 -11 9 2 19 31 -4 58 -49 58 -37
0 -51 12 -51 41 0 18 27 8 37 -13 9 -20 11 -18 17 26 7 42 10 47 28 43 14 -4
18 -2 14 10 -3 8 -6 16 -6 19 0 2 -7 1 -15 -2 -20 -8 -45 13 -45 37 0 22 35
27 43 7 3 -7 6 6 6 30 1 23 3 42 6 42 8 0 55 -52 55 -60 0 -4 14 -13 31 -20
26 -11 32 -11 40 1 11 18 2 49 -22 72 -11 10 -19 27 -19 37 0 22 10 26 26 10
6 -6 24 -13 40 -16 56 -10 79 -27 84 -64 4 -30 9 -35 44 -42 36 -8 42 -6 74
27 31 31 34 38 24 58 -6 12 -12 33 -14 47 -2 18 -9 25 -25 25 -12 0 -25 4 -29
8 -4 4 -19 7 -34 7 -14 0 -30 4 -35 9 -12 12 -131 19 -141 8 -16 -16 -26 -5
-20 23 3 17 1 30 -4 30 -6 0 -10 -11 -10 -24 0 -33 -17 -42 -41 -20 -24 22
-26 56 -1 52 15 -3 17 5 17 57 0 41 -4 60 -12 61 -24 3 -25 4 -13 19 11 13
-48 15 -519 15 l-531 0 0 -3160z m1020 3110 c0 -22 -4 -40 -10 -40 -11 0 -14
63 -3 73 11 12 13 8 13 -33z m60 -201 c0 -11 -4 -17 -10 -14 -5 3 -10 13 -10
21 0 8 5 14 10 14 6 0 10 -9 10 -21z m147 -26 c-3 -3 -11 -2 -17 2 -8 5 -7 11
2 22 12 15 13 14 16 -1 2 -10 1 -20 -1 -23z m-207 -3 c0 -5 -2 -10 -4 -10 -3
0 -8 5 -11 10 -3 6 -1 10 4 10 6 0 11 -4 11 -10z m340 -40 c0 -6 -9 -10 -20
-10 -13 0 -20 7 -20 20 0 18 3 19 20 10 11 -6 20 -15 20 -20z m-379 -23 c-8
-8 -11 -3 -11 19 1 25 2 27 11 11 8 -14 8 -22 0 -30z m129 28 c0 -8 -7 -15
-15 -15 -16 0 -20 12 -8 23 11 12 23 8 23 -8z m-152 -88 c-11 -21 -32 -18 -36
5 -2 11 4 16 21 14 21 -1 23 -4 15 -19z m-31 -66 c2 -25 4 -57 5 -70 2 -13 -3
-26 -11 -29 -10 -3 -12 2 -7 22 3 14 2 26 -3 26 -17 0 -23 38 -9 59 10 17 9
23 -5 39 -21 23 -10 38 12 15 9 -9 17 -37 18 -62z m40 10 c10 -16 9 -20 -4
-25 -17 -7 -33 9 -33 32 0 19 24 14 37 -7z m-153 -46 c-4 -8 -10 -13 -15 -10
-4 3 -6 12 -3 20 4 8 10 13 15 10 4 -3 6 -12 3 -20z m6 -80 c0 -29 -16 -41
-24 -19 -8 21 3 56 15 49 5 -4 9 -17 9 -30z m-57 -88 c-3 -5 -10 -4 -15 1 -6
6 -7 16 -3 22 6 9 9 9 16 -1 4 -7 5 -17 2 -22z m-23 -72 c0 -14 -4 -25 -10
-25 -5 0 -10 11 -10 25 0 14 5 25 10 25 6 0 10 -11 10 -25z m-12 -73 c2 -18
-1 -32 -6 -32 -12 0 -22 24 -22 52 0 32 25 15 28 -20z m5272 -6 c0 -26 -15
-43 -24 -28 -7 12 4 52 15 52 5 0 9 -11 9 -24z m-5166 -132 c7 -19 -2 -37 -15
-29 -12 8 -12 45 0 45 5 0 12 -7 15 -16z m-34 -55 c0 -10 -7 -19 -15 -19 -15
0 -21 31 -9 43 11 10 24 -3 24 -24z m-68 -94 c0 -5 -5 -11 -11 -13 -6 -2 -11
4 -11 13 0 9 5 15 11 13 6 -2 11 -8 11 -13z m97 -69 c-1 -11 1 -29 6 -39 4 -9
4 -29 0 -44 -5 -21 -8 -24 -16 -12 -6 9 -9 10 -9 2 0 -7 -7 -13 -15 -13 -14 0
-17 6 -14 28 1 4 5 6 9 5 4 -1 11 5 14 13 4 11 2 15 -8 11 -13 -5 -13 -1 -5
20 5 15 8 32 5 39 -6 16 3 24 21 17 8 -3 13 -15 12 -27z m21 -158 c0 -4 7 -8
16 -8 13 0 15 -7 10 -31 -3 -18 -1 -38 5 -45 15 -18 -1 -17 -25 1 -13 10 -17
21 -12 40 5 18 2 27 -9 31 -19 8 -19 21 0 21 8 0 15 -4 15 -9z m-30 -135 c0
-13 -3 -13 -15 -3 -8 7 -15 19 -15 27 0 13 3 13 15 3 8 -7 15 -19 15 -27z m50
13 c0 -3 -4 -8 -10 -11 -5 -3 -10 -1 -10 4 0 6 5 11 10 11 6 0 10 -2 10 -4z
m50 -41 c0 -13 5 -27 10 -30 17 -11 11 -45 -8 -45 -27 0 -57 62 -43 88 14 27
41 18 41 -13z m0 -121 c0 -8 -4 -12 -10 -9 -5 3 -10 13 -10 21 0 8 5 12 10 9
6 -3 10 -13 10 -21z m700 -111 c-1 -18 -18 -35 -24 -24 -4 6 -4 16 -1 21 7 12
25 13 25 3z m-748 -25 c-9 -9 -15 -9 -24 0 -9 9 -7 12 12 12 19 0 21 -3 12
-12z m28 -14 c0 -8 -5 -12 -10 -9 -6 4 -8 11 -5 16 9 14 15 11 15 -7z m763
-42 c-3 -25 -10 -41 -17 -39 -11 4 -11 10 -2 67 5 35 5 35 15 25 6 -6 7 -29 4
-53z m-713 13 c0 -8 -4 -15 -10 -15 -5 0 -10 7 -10 15 0 8 5 15 10 15 6 0 10
-7 10 -15z m-70 -30 c6 3 13 -1 16 -10 4 -9 13 -14 20 -11 16 6 20 1 28 -46 6
-33 5 -36 -15 -31 -11 3 -23 13 -27 22 -3 9 -16 26 -29 38 -14 13 -23 33 -22
50 0 27 1 27 10 5 5 -13 13 -20 19 -17z m380 0 c0 -8 -7 -15 -15 -15 -8 0 -15
7 -15 15 0 8 7 15 15 15 8 0 15 -7 15 -15z m600 -33 c0 -34 -7 -43 -26 -35
-14 5 -19 44 -7 56 16 16 33 5 33 -21z m-850 3 c0 -8 -4 -15 -10 -15 -5 0 -10
7 -10 15 0 8 5 15 10 15 6 0 10 -7 10 -15z m575 -34 c22 -27 51 -52 65 -56 36
-10 50 -24 50 -51 0 -31 -17 -31 -32 1 -11 26 -32 33 -43 15 -11 -18 28 -61
53 -57 16 3 22 -1 22 -15 0 -11 -5 -16 -10 -13 -10 6 -10 -3 4 -122 2 -18 1
-33 -2 -33 -18 1 -32 18 -26 33 4 11 -6 29 -29 54 -39 41 -63 108 -53 148 8
30 -18 91 -46 108 -10 7 -18 17 -18 24 0 26 26 11 65 -36z m-697 -45 c3 -12
-1 -17 -10 -14 -7 3 -15 13 -16 22 -3 12 1 17 10 14 7 -3 15 -13 16 -22z m-4
-131 c13 -19 13 -25 3 -25 -17 0 -37 20 -37 37 0 21 16 15 34 -12z m486 -35
c12 -22 10 -89 -2 -96 -4 -3 -8 9 -8 25 0 32 -14 42 -24 16 -9 -24 -36 -6 -36
25 0 18 7 30 23 38 31 15 35 14 47 -8z m-394 -21 c3 -6 2 -15 -4 -21 -7 -7
-14 -3 -21 11 -10 17 -9 21 3 21 8 0 18 -5 22 -11z m5096 -24 c-11 -21 -25 -4
-16 20 4 10 10 13 16 7 7 -7 7 -16 0 -27z m-5168 19 c26 -10 18 -29 -14 -31
-19 -1 -30 3 -30 11 0 24 15 31 44 20z m877 -34 c22 -12 24 -37 7 -75 -14 -31
-18 -31 -41 1 -16 21 -17 28 -5 54 15 34 13 33 39 20z m-161 -16 c0 -8 -5 -12
-10 -9 -6 4 -8 11 -5 16 9 14 15 11 15 -7z m4430 -18 c0 -3 -4 -8 -10 -11 -5
-3 -10 -1 -10 4 0 6 5 11 10 11 6 0 10 -2 10 -4z m-1282 -45 c2 -13 -4 -28
-15 -36 -27 -21 -33 -18 -33 13 0 50 41 69 48 23z m-3848 9 c0 -5 -4 -10 -10
-10 -5 0 -10 5 -10 10 0 6 5 10 10 10 6 0 10 -4 10 -10z m517 -56 c3 -8 16
-20 29 -25 36 -13 29 -28 -18 -35 -22 -4 -49 -15 -60 -26 -24 -24 -35 -23 -42
7 -9 36 0 45 45 45 39 0 52 13 23 24 -8 3 -12 10 -9 16 9 15 25 12 32 -6z
m353 -17 c0 -39 8 -51 25 -37 18 15 37 -12 42 -61 4 -29 2 -39 -6 -35 -6 4
-11 2 -11 -4 0 -7 -6 -10 -14 -7 -15 6 -29 -50 -14 -59 4 -3 8 -14 8 -25 0
-15 -7 -19 -30 -19 -37 0 -48 22 -27 54 20 30 11 65 -19 77 -27 10 -33 53 -9
63 9 3 15 18 15 39 0 36 6 47 27 47 8 0 13 -12 13 -33z m-875 3 c3 -5 -1 -10
-9 -10 -9 0 -16 5 -16 10 0 6 4 10 9 10 6 0 13 -4 16 -10z m403 -52 c6 -15 7
-28 2 -28 -22 0 -40 14 -40 30 0 11 -4 22 -10 25 -20 13 -9 23 14 12 13 -6 28
-24 34 -39z m3474 27 c0 -5 -5 -11 -11 -13 -6 -2 -11 4 -11 13 0 9 5 15 11 13
6 -2 11 -8 11 -13z m117 -7 c-1 -34 -24 -91 -37 -96 -15 -5 -16 34 -1 44 6 3
8 15 6 26 -7 26 2 48 19 48 8 0 14 -10 13 -22z m-3966 -40 c-3 -16 -9 -28 -14
-28 -10 0 -12 31 -3 55 10 25 23 4 17 -27z m1047 -58 c23 -45 25 -68 6 -92
-20 -27 -61 -22 -85 8 -22 28 -28 54 -12 54 5 0 12 -10 14 -22 3 -17 5 -14 6
10 0 19 7 35 16 38 8 4 15 15 15 25 0 31 18 22 40 -21z m-1027 -14 c6 -15 -1
-26 -15 -26 -4 0 -8 9 -8 20 0 23 15 27 23 6z m4897 -11 c0 -8 -4 -15 -9 -15
-13 0 -22 16 -14 24 11 11 23 6 23 -9z m-4500 -15 c13 -8 13 -9 0 -14 -21 -6
-50 -4 -50 4 0 20 26 25 50 10z m42 -5 c0 -5 -5 -11 -11 -13 -6 -2 -11 4 -11
13 0 9 5 15 11 13 6 -2 11 -8 11 -13z m261 -17 c-7 -27 -22 -48 -34 -48 -13 0
-11 44 3 58 20 20 37 14 31 -10z m2147 -4 c25 -9 49 -22 53 -30 4 -8 14 -14
21 -14 6 0 31 -20 55 -45 23 -25 59 -52 78 -62 21 -10 41 -29 48 -47 7 -17 12
-32 11 -34 -2 -1 -31 -5 -66 -7 -67 -6 -80 -1 -140 53 -20 19 -54 35 -93 45
-92 23 -111 32 -127 61 -12 24 -12 28 6 40 10 8 30 23 44 35 30 25 51 26 110
5z m-2417 -31 c-5 -12 -7 -12 -14 -1 -13 20 -11 28 5 22 8 -3 12 -12 9 -21z
m-383 8 c0 -6 -4 -13 -10 -16 -5 -3 -10 1 -10 9 0 9 5 16 10 16 6 0 10 -4 10
-9z m2614 -52 c-3 -5 -10 -7 -15 -3 -5 3 -7 10 -3 15 3 5 10 7 15 3 5 -3 7
-10 3 -15z m-1936 -27 c2 -14 -2 -22 -11 -22 -17 0 -26 19 -19 38 7 19 27 9
30 -16z m100 -57 c-3 -25 -7 -30 -28 -27 -22 2 -23 1 -7 -8 23 -15 22 -30 -2
-30 -21 0 -51 35 -51 60 0 8 14 27 32 42 31 25 34 26 46 10 7 -9 12 -30 10
-47z m3132 -6 c0 -13 -7 -19 -21 -19 -11 0 -18 3 -16 8 2 4 7 15 10 25 8 22
27 13 27 -14z m-3835 3 c0 -18 -20 -15 -23 4 -3 10 1 15 10 12 7 -3 13 -10 13
-16z m267 -26 c2 -19 1 -33 -3 -30 -16 10 -17 -28 -1 -46 9 -11 20 -30 24 -43
5 -14 6 -9 3 16 -3 31 -1 37 15 37 10 0 20 5 22 12 3 7 12 5 26 -8 26 -22 29
-46 5 -42 -13 2 -19 -5 -21 -27 -2 -16 -8 -33 -13 -36 -6 -3 -3 -21 6 -42 18
-45 19 -47 1 -47 -9 0 -17 15 -21 40 -4 23 -12 40 -20 40 -11 0 -22 19 -39 73
-3 9 -16 21 -29 26 -46 18 -50 65 -7 80 17 5 30 15 30 20 0 27 18 7 22 -23z
m4403 24 c-3 -5 -11 -10 -16 -10 -6 0 -7 5 -4 10 3 6 11 10 16 10 6 0 7 -4 4
-10z m-4560 -35 c0 -10 -6 -20 -12 -22 -8 -3 -13 5 -13 22 0 17 5 25 13 23 6
-3 12 -13 12 -23z m453 -17 c4 -33 -16 -37 -42 -9 -21 24 -12 43 17 39 16 -2
23 -11 25 -30z m3366 17 c3 -8 2 -22 -1 -32 -5 -12 -3 -14 7 -8 10 6 12 2 7
-16 -4 -13 -7 -34 -7 -45 0 -15 -8 -23 -25 -26 -17 -4 -25 -1 -25 8 0 8 -11
14 -26 14 -22 0 -25 4 -22 28 3 23 8 27 33 27 20 0 29 5 27 14 -4 18 7 51 18
51 4 0 10 -7 14 -15z m-1317 -6 c18 -6 33 -16 34 -22 3 -47 9 -61 32 -83 15
-14 27 -29 27 -33 0 -12 -84 -22 -88 -10 -2 5 -9 9 -15 9 -7 0 -17 9 -24 19
-10 16 -21 18 -76 14 -39 -3 -72 -1 -85 6 -21 11 -21 13 -6 42 26 52 129 82
201 58z m1413 -19 c0 -11 -2 -20 -5 -20 -2 0 -9 9 -15 20 -9 16 -8 20 5 20 8
0 15 -9 15 -20z m-1648 -38 c-4 -11 -8 -11 -20 2 -13 13 -13 17 -2 31 13 16
15 16 21 -2 3 -10 4 -24 1 -31z m638 -17 c0 -8 -2 -15 -4 -15 -2 0 -6 7 -10
15 -3 8 -1 15 4 15 6 0 10 -7 10 -15z m-2830 -40 c0 -16 -6 -25 -15 -25 -9 0
-15 9 -15 25 0 16 6 25 15 25 9 0 15 -9 15 -25z m4170 21 c0 -3 -5 -17 -10
-32 -13 -33 -36 -19 -25 15 5 17 35 31 35 17z m-3140 -50 c7 -9 17 -16 22 -16
9 0 68 -57 68 -66 0 -2 -12 -4 -26 -4 -17 0 -28 -6 -31 -20 -12 -45 -71 -10
-92 55 -7 22 -20 48 -28 57 -13 15 -13 16 5 11 11 -2 23 0 26 6 8 13 35 1 56
-23z m1352 -5 c23 5 58 -21 58 -43 0 -18 -4 -20 -37 -15 -25 4 -44 1 -56 -8
-23 -17 -12 -23 35 -22 22 1 45 -6 56 -16 10 -9 27 -17 38 -17 15 0 16 -2 4
-9 -8 -6 -18 -7 -22 -5 -5 3 -15 -1 -23 -9 -11 -11 -33 -13 -97 -10 -100 6
-120 15 -116 51 2 21 8 26 26 25 12 -2 22 2 22 7 0 6 -7 10 -15 10 -25 0 -29
29 -7 50 21 20 89 31 109 17 6 -5 17 -7 25 -6z m-2402 -31 c0 -11 -4 -20 -10
-20 -5 0 -10 9 -10 20 0 11 5 20 10 20 6 0 10 -9 10 -20z m75 -15 c0 -10 -6
-20 -12 -22 -8 -3 -13 5 -13 22 0 17 5 25 13 23 6 -3 12 -13 12 -23z m345 10
c0 -8 -4 -15 -10 -15 -5 0 -10 7 -10 15 0 8 5 15 10 15 6 0 10 -7 10 -15z
m3650 -16 c0 -23 -4 -30 -17 -27 -23 4 -27 23 -8 42 22 22 25 21 25 -15z
m-3940 -3 c0 -24 -18 -28 -30 -6 -9 17 -8 20 10 20 11 0 20 -6 20 -14z m-23
-83 c-3 -10 -5 -2 -5 17 0 19 2 27 5 18 2 -10 2 -26 0 -35z m219 -10 c-11 -11
-19 6 -11 24 8 17 8 17 12 0 3 -10 2 -21 -1 -24z m-136 -33 c0 -5 -2 -10 -4
-10 -3 0 -8 5 -11 10 -3 6 -1 10 4 10 6 0 11 -4 11 -10z m1165 -80 c3 -5 1
-19 -5 -31 -6 -11 -8 -28 -5 -37 6 -15 8 -15 15 3 8 18 9 17 9 -7 1 -16 -3
-28 -8 -28 -5 0 -12 -13 -16 -29 -4 -20 -11 -28 -21 -24 -9 3 -14 -1 -14 -12
0 -9 5 -13 10 -10 19 11 10 -25 -15 -65 -13 -21 -40 -55 -60 -74 -19 -19 -35
-45 -35 -56 0 -20 -4 -29 -28 -77 -7 -13 -12 -33 -12 -45 0 -12 -3 -19 -6 -15
-15 14 -35 -25 -32 -63 1 -27 -3 -45 -13 -51 -12 -8 -12 -11 1 -18 10 -7 15
-24 14 -55 -1 -25 2 -45 5 -44 3 0 13 0 21 -1 13 -1 13 -2 0 -11 -9 -6 -10
-10 -3 -10 14 0 27 -53 18 -79 -5 -17 -39 -38 -56 -34 -3 1 0 -18 5 -43 10
-44 11 -44 24 -19 17 34 22 31 22 -9 0 -34 -1 -34 -31 -26 -17 5 -38 15 -47
22 -8 7 -18 11 -21 9 -16 -11 -21 28 -7 61 12 28 21 36 36 33 18 -3 20 1 18
36 -2 26 -7 38 -15 34 -7 -2 -13 0 -13 6 0 7 -17 10 -45 7 -25 -2 -47 1 -49 7
-3 5 -5 2 -5 -7 -1 -10 -6 -18 -12 -18 -5 0 -7 5 -4 11 4 5 0 18 -9 28 -14 16
-15 23 -4 45 7 17 8 30 2 34 -5 4 -16 20 -23 35 -13 25 -13 31 2 56 15 26 15
30 -1 64 -9 20 -23 36 -31 37 -20 0 -5 51 21 73 18 15 20 20 7 28 -7 5 -17 9
-21 9 -5 0 -8 7 -8 15 0 10 10 15 28 15 15 0 36 7 46 15 11 8 22 11 25 6 3 -5
21 -11 40 -14 19 -3 38 -13 43 -21 11 -20 48 -21 48 -2 0 7 -6 19 -14 25 -9 8
-11 22 -7 44 6 30 11 33 58 40 47 8 52 11 58 38 5 20 1 38 -9 54 -27 42 -21
58 19 52 27 -5 41 -1 60 16 23 20 24 24 11 49 -13 24 -12 27 2 31 28 8 31 7
37 -3z m-945 -24 c0 -14 -5 -28 -10 -31 -13 -8 -24 20 -16 40 9 24 26 17 26
-9z m0 -111 c0 -13 -6 -30 -14 -37 -12 -11 -12 -19 1 -51 17 -42 10 -58 -27
-64 -23 -3 -25 13 -11 64 7 25 6 35 -5 41 -13 7 -12 12 2 40 19 40 54 44 54 7z
m17 -27 c-3 -7 -5 -2 -5 12 0 14 2 19 5 13 2 -7 2 -19 0 -25z m2767 -30 c-3
-4 -11 -8 -17 -7 -9 0 -9 2 0 5 7 3 9 13 6 22 -4 14 -3 14 5 2 6 -8 8 -18 6
-22z m-2800 -180 c-3 -10 -9 -18 -14 -18 -18 0 -21 21 -9 58 l12 37 9 -30 c4
-16 5 -38 2 -47z m122 5 c-11 -11 -19 6 -11 24 8 17 8 17 12 0 3 -10 2 -21 -1
-24z m3209 -79 c30 -32 31 -44 6 -76 -13 -16 -17 -29 -10 -39 13 -21 11 -65
-3 -76 -11 -8 -40 -9 -90 -4 -15 2 -8 64 8 82 14 16 15 23 4 48 -13 33 -3 62
28 80 25 15 30 14 57 -15z m-3300 -8 c21 -21 23 -27 12 -49 -7 -16 -14 -21
-19 -14 -14 23 -20 -2 -9 -36 12 -36 6 -87 -10 -87 -5 0 -7 -11 -3 -25 7 -26
-11 -59 -27 -49 -13 8 -11 48 3 62 7 7 9 13 5 13 -4 1 -11 3 -17 4 -5 1 -14 3
-19 4 -19 2 -21 35 -3 55 32 35 35 46 17 66 -16 17 -15 20 6 49 27 37 33 38
64 7z m3130 -6 c14 -5 24 -14 21 -19 -8 -13 -56 0 -56 15 0 17 1 17 35 4z
m-2630 -68 c0 -18 -20 -15 -23 4 -3 10 1 15 10 12 7 -3 13 -10 13 -16z m2628
6 c2 -7 -2 -26 -10 -42 -18 -34 -32 -21 -25 24 4 30 26 41 35 18z m-3015 -50
c-4 -28 -19 -27 -30 1 -6 17 -3 21 13 21 15 0 20 -5 17 -22z m3072 -116 c0
-27 -6 -41 -22 -51 -20 -12 -24 -11 -45 14 -30 34 -26 45 18 61 49 18 49 18
49 -24z m91 -55 c-8 -8 -11 -8 -11 1 0 7 -9 12 -20 12 -15 0 -20 7 -20 30 0
17 7 33 17 39 14 8 20 3 31 -31 10 -29 11 -43 3 -51z m-3151 63 c0 -11 -4 -20
-10 -20 -5 0 -10 9 -10 20 0 11 5 20 10 20 6 0 10 -9 10 -20z m3324 -72 c22
-31 20 -64 -5 -87 -17 -15 -19 -23 -10 -39 15 -29 14 -53 -6 -74 -14 -15 -14
-22 -3 -42 7 -15 10 -36 6 -52 -5 -20 -2 -31 15 -47 17 -16 20 -27 15 -59 -5
-27 -2 -46 9 -61 20 -29 19 -43 -6 -68 -19 -19 -20 -22 -5 -54 20 -42 21 -41
-11 -57 -56 -27 -121 29 -80 69 12 12 13 22 5 44 -6 16 -7 41 -3 56 4 17 0 38
-11 59 -17 31 -17 33 0 59 10 15 26 30 36 32 10 3 20 13 23 22 3 14 -1 17 -20
13 -33 -6 -66 24 -53 49 25 45 -5 54 -37 11 -15 -21 -18 -33 -11 -45 6 -12 5
-27 -6 -47 -8 -17 -10 -30 -5 -30 5 0 9 5 9 10 0 6 5 10 10 10 16 0 11 -20 -6
-27 -10 -4 -22 1 -29 10 -7 10 -19 17 -28 17 -9 0 -21 9 -27 19 -12 23 -13 52
-2 50 18 -3 24 2 14 14 -19 24 -24 73 -7 87 8 7 15 18 15 25 0 27 -26 21 -59
-14 -18 -19 -42 -37 -53 -38 -58 -9 -96 107 -43 127 54 21 72 22 89 5 13 -14
19 -15 31 -5 66 55 125 52 125 -5 0 -17 -7 -40 -15 -52 -22 -32 3 -43 26 -12
21 27 24 45 9 54 -5 3 -10 19 -10 35 0 51 85 79 114 38z m-3314 -28 c0 -24
-20 -37 -30 -19 -10 16 7 52 21 44 5 -4 9 -15 9 -25z m-133 -6 c18 -21 20 -29
10 -45 -13 -20 -27 -25 -27 -9 0 6 -5 10 -11 10 -8 0 -8 -4 0 -14 18 -21 26
-112 11 -121 -7 -4 -15 -3 -19 3 -4 7 -12 8 -21 2 -8 -6 -10 -10 -4 -10 18 0
25 -29 14 -51 -6 -10 -18 -19 -27 -19 -12 0 -14 7 -10 36 4 24 1 44 -9 58 -13
21 -12 26 12 62 16 23 22 40 15 42 -18 6 -12 43 11 63 27 24 28 24 55 -7z
m623 -19 c0 -29 -16 -41 -24 -19 -8 21 3 56 15 49 5 -4 9 -17 9 -30z m-512
-84 c-4 -30 -34 -41 -41 -14 -3 13 -5 11 -6 -7 -1 -21 -3 -22 -11 -8 -12 20
-3 48 16 48 8 0 14 4 14 10 0 5 7 7 16 3 9 -3 14 -15 12 -32z m-13 -107 c0
-21 -5 -29 -17 -28 -10 1 -18 -2 -18 -8 0 -5 -4 -6 -10 -3 -5 3 -10 15 -10 26
0 11 4 18 9 14 5 -3 13 4 16 15 9 30 30 19 30 -16z m15 -116 c0 -22 -19 -33
-32 -20 -6 6 -8 26 -3 49 l7 38 14 -25 c7 -14 13 -33 14 -42z m-152 17 c25
-29 27 -52 7 -78 -10 -14 -11 -26 -3 -48 11 -32 3 -53 -12 -30 -13 21 -18 -18
-7 -52 6 -19 6 -37 -2 -54 -16 -36 -30 -18 -32 40 -1 26 -5 43 -9 37 -11 -18
-30 13 -23 38 3 12 9 22 14 22 12 0 11 47 -1 55 -17 11 -11 48 12 72 27 29 29
29 56 -2z m3282 -55 c0 -5 7 -10 15 -10 19 0 30 -43 16 -68 -19 -35 -87 -19
-79 19 2 8 -3 13 -9 12 -7 -2 -13 6 -13 18 0 14 5 19 14 16 8 -3 20 1 26 9 14
16 30 19 30 4z m-3145 -66 c0 -22 -5 -29 -20 -29 -11 0 -23 -4 -27 -10 -4 -5
-8 3 -8 18 0 16 4 26 9 23 5 -3 11 4 14 15 8 30 32 18 32 -17z m5 -102 c0 -34
-7 -43 -26 -35 -14 5 -19 44 -7 56 16 16 33 5 33 -21z m6 -157 c-5 -13 -10
-14 -26 -5 -17 9 -20 17 -15 43 14 72 17 74 33 25 8 -26 12 -54 8 -63z m-176
33 c5 -13 9 -17 9 -10 1 18 21 4 21 -14 0 -8 -4 -13 -9 -9 -5 3 -12 1 -16 -5
-10 -16 -42 -12 -49 6 -7 18 10 54 25 54 5 0 14 -10 19 -22z m3454 -18 c21 -8
26 -16 26 -44 0 -39 -8 -47 -51 -50 -38 -3 -64 24 -55 59 5 21 20 33 53 44 1
1 13 -3 27 -9z m-3459 -70 c11 -17 -7 -61 -23 -58 -19 4 -35 55 -19 62 20 8
36 6 42 -4z m181 -64 c-7 -27 -31 -35 -39 -13 -3 6 -6 3 -6 -8 -1 -18 -2 -18
-17 -3 -20 20 -12 50 18 64 31 14 53 -5 44 -40z m-236 24 c0 -5 -4 -10 -10
-10 -5 0 -10 5 -10 10 0 6 5 10 10 10 6 0 10 -4 10 -10z m77 -80 c4 -22 -13
-44 -30 -37 -21 8 -10 59 12 55 9 -2 17 -10 18 -18z m23 -136 c0 -8 -4 -12
-10 -9 -5 3 -10 10 -10 16 0 5 5 9 10 9 6 0 10 -7 10 -16z m530 -1317 c0 -8
-7 -14 -15 -14 -16 0 -19 9 -8 20 11 11 23 8 23 -6z"/>
<path d="M2267 2713 c-10 -9 -9 -23 1 -23 5 0 9 7 9 15 0 17 -1 18 -10 8z"/>
<path d="M2240 2560 c0 -22 1 -23 24 -14 23 9 20 34 -4 34 -13 0 -20 -7 -20
-20z"/>
<path d="M2345 2530 c-3 -5 1 -10 9 -10 9 0 16 5 16 10 0 6 -4 10 -9 10 -6 0
-13 -4 -16 -10z"/>
<path d="M2315 2500 c3 -5 10 -10 16 -10 5 0 9 5 9 10 0 6 -7 10 -16 10 -8 0
-12 -4 -9 -10z"/>
<path d="M2350 2469 c0 -5 5 -7 10 -4 6 3 10 8 10 11 0 2 -4 4 -10 4 -5 0 -10
-5 -10 -11z"/>
<path d="M1630 2590 c0 -5 5 -10 10 -10 6 0 10 5 10 10 0 6 -4 10 -10 10 -5 0
-10 -4 -10 -10z"/>
<path d="M1116 6304 c-11 -28 -7 -37 10 -24 8 8 27 15 41 16 49 5 50 24 1 24
-33 0 -48 -5 -52 -16z"/>
<path d="M5722 6300 c-16 -27 -16 -70 2 -70 25 0 40 -28 28 -53 -6 -12 -13
-29 -15 -37 -3 -8 -6 -2 -6 13 -1 36 -21 25 -21 -12 0 -15 -5 -32 -11 -38 -6
-6 -8 -16 -5 -22 11 -16 46 -13 46 4 0 21 20 19 47 -6 19 -19 25 -20 39 -8 14
11 18 11 30 -6 8 -10 14 -28 15 -39 0 -13 3 -16 6 -7 6 13 -14 87 -28 107 -5
5 -10 29 -11 52 -2 23 -7 42 -12 42 -4 0 -6 9 -3 20 3 12 1 18 -5 14 -5 -4
-21 0 -36 7 -19 11 -26 11 -29 2 -2 -7 -11 -9 -19 -6 -13 5 -13 8 1 29 17 26
19 34 7 34 -4 0 -13 -9 -20 -20z m107 -142 c-1 -31 -1 -31 -8 -8 -5 14 -6 28
-4 33 9 15 13 6 12 -25z m-19 -38 c0 -25 -16 -26 -30 -1 -17 32 -13 43 10 31
11 -6 20 -20 20 -30z"/>
<path d="M5615 6292 c2 -3 -5 -10 -18 -17 -19 -10 -26 -39 -11 -54 7 -7 44 31
44 45 0 7 7 17 17 22 13 8 11 10 -11 10 -15 0 -24 -3 -21 -6z"/>
<path d="M5780 6285 c0 -8 5 -15 10 -15 6 0 10 7 10 15 0 8 -4 15 -10 15 -5 0
-10 -7 -10 -15z"/>
<path d="M5840 6276 c0 -8 5 -18 10 -21 6 -3 10 3 10 14 0 12 -4 21 -10 21 -5
0 -10 -6 -10 -14z"/>
<path d="M1140 6205 c-11 -28 5 -65 27 -65 16 0 17 26 2 36 -8 4 -8 9 0 17 16
16 13 37 -4 37 -9 0 -20 -11 -25 -25z"/>
<path d="M3823 6223 c-7 -3 -13 -16 -13 -29 0 -14 -7 -27 -15 -30 -19 -8 -19
-28 2 -76 17 -37 44 -50 59 -27 4 8 9 8 17 0 18 -18 27 -13 38 19 6 17 15 30
20 30 12 0 11 47 -1 55 -5 3 -10 15 -10 26 0 23 -27 36 -43 20 -8 -8 -15 -7
-26 3 -9 7 -22 11 -28 9z m71 -86 c12 -19 -4 -37 -35 -37 -16 0 -32 43 -20 55
10 11 44 0 55 -18z"/>
<path d="M1180 6180 c0 -5 5 -10 10 -10 6 0 10 5 10 10 0 6 -4 10 -10 10 -5 0
-10 -4 -10 -10z"/>
<path d="M3065 6177 c-4 -10 -5 -21 -1 -24 10 -10 18 4 13 24 -4 17 -4 17 -12
0z"/>
<path d="M3200 6178 c0 -9 5 -20 10 -23 13 -8 13 5 0 25 -8 13 -10 13 -10 -2z"/>
<path d="M3241 6158 c-9 -14 -9 -24 -2 -31 7 -7 12 -1 17 17 8 34 2 41 -15 14z"/>
<path d="M5890 6160 c0 -13 5 -18 14 -14 8 3 12 12 9 20 -8 21 -23 17 -23 -6z"/>
<path d="M4925 6160 c-3 -5 -1 -10 4 -10 6 0 11 5 11 10 0 6 -2 10 -4 10 -3 0
-8 -4 -11 -10z"/>
<path d="M3025 6150 c3 -5 10 -10 16 -10 5 0 9 5 9 10 0 6 -7 10 -16 10 -8 0
-12 -4 -9 -10z"/>
<path d="M3175 6140 c3 -5 8 -10 11 -10 2 0 4 5 4 10 0 6 -5 10 -11 10 -5 0
-7 -4 -4 -10z"/>
<path d="M3290 6144 c0 -18 37 -47 45 -35 3 6 -2 14 -12 18 -10 4 -21 11 -25
17 -6 8 -8 8 -8 0z"/>
<path d="M5923 6086 c-2 -53 9 -47 20 11 4 20 2 33 -6 36 -8 3 -13 -12 -14
-47z"/>
<path d="M4896 6093 c-20 -19 -26 -35 -24 -57 3 -26 9 -32 52 -45 45 -14 49
-14 62 4 25 34 17 71 -19 99 -19 15 -36 26 -39 26 -3 0 -17 -12 -32 -27z m54
-42 c0 -20 -13 -41 -21 -35 -15 9 -10 44 6 44 8 0 15 -4 15 -9z"/>
<path d="M5142 6108 c3 -7 13 -15 24 -17 16 -3 17 -1 5 13 -16 19 -34 21 -29
4z"/>
<path d="M2120 6072 c0 -5 7 -13 16 -16 10 -4 14 -1 12 6 -5 15 -28 23 -28 10z"/>
<path d="M3130 6030 c0 -18 6 -33 15 -36 8 -4 15 -14 15 -24 0 -10 9 -28 21
-41 l20 -24 -5 27 c-3 15 -2 30 4 33 19 12 10 45 -14 54 -13 5 -26 17 -29 25
-11 27 -27 18 -27 -14z"/>
<path d="M4708 6047 c-20 -16 -32 -58 -24 -85 7 -20 45 -42 76 -42 22 0 60 45
60 72 0 26 -44 68 -72 68 -13 0 -31 -6 -40 -13z m58 -48 c9 -16 -12 -33 -31
-25 -14 5 -15 9 -5 21 15 18 26 19 36 4z"/>
<path d="M5950 6044 c0 -8 5 -12 10 -9 6 3 10 10 10 16 0 5 -4 9 -10 9 -5 0
-10 -7 -10 -16z"/>
<path d="M2017 6034 c-10 -11 3 -24 24 -24 10 0 19 7 19 15 0 15 -31 21 -43 9z"/>
<path d="M3069 6028 c-1 -2 -3 -14 -4 -28 -2 -14 -6 -34 -9 -45 -4 -11 -2 -26
3 -34 14 -22 41 4 41 40 0 15 4 30 10 34 15 9 0 35 -21 35 -10 0 -20 -1 -20
-2z"/>
<path d="M5805 6020 c-3 -5 -1 -10 4 -10 6 0 11 5 11 10 0 6 -2 10 -4 10 -3 0
-8 -4 -11 -10z"/>
<path d="M5066 5965 c-15 -13 -26 -35 -26 -49 0 -20 9 -29 46 -46 26 -11 51
-20 57 -20 17 0 36 34 37 65 0 71 -62 98 -114 50z m58 -34 c8 -13 -4 -42 -15
-35 -12 7 -12 44 0 44 6 0 12 -4 15 -9z"/>
<path d="M5956 5975 c-3 -9 0 -15 9 -15 8 0 15 7 15 15 0 8 -4 15 -9 15 -5 0
-11 -7 -15 -15z"/>
<path d="M2720 5969 c0 -5 5 -7 10 -4 6 3 10 8 10 11 0 2 -4 4 -10 4 -5 0 -10
-5 -10 -11z"/>
<path d="M5830 5951 c-13 -25 3 -36 29 -19 15 9 17 15 9 25 -15 18 -26 16 -38
-6z"/>
<path d="M2341 5923 c6 -15 14 -30 18 -33 4 -3 15 -22 25 -43 22 -48 36 -39
32 21 -2 35 -7 48 -19 50 -9 2 -17 -2 -17 -10 -1 -7 -8 -1 -16 15 -19 36 -37
36 -23 0z"/>
<path d="M5340 5940 c0 -5 5 -10 10 -10 6 0 10 5 10 10 0 6 -4 10 -10 10 -5 0
-10 -4 -10 -10z"/>
<path d="M3110 5916 c0 -26 15 -43 24 -28 7 12 -4 52 -15 52 -5 0 -9 -11 -9
-24z"/>
<path d="M5739 5898 c-18 -42 -5 -62 36 -55 30 5 35 3 35 -14 0 -19 1 -19 25
-3 14 9 24 22 22 27 -5 16 -55 27 -60 14 -3 -9 -8 -8 -20 2 -9 7 -15 16 -13
20 3 4 1 13 -4 21 -7 11 -11 8 -21 -12z"/>
<path d="M1750 5890 c0 -5 5 -10 11 -10 5 0 7 5 4 10 -3 6 -8 10 -11 10 -2 0
-4 -4 -4 -10z"/>
<path d="M1799 5883 c-12 -15 -12 -16 5 -10 10 4 25 2 32 -4 19 -16 38 -1 20
17 -19 19 -40 18 -57 -3z"/>
<path d="M5897 5879 c-7 -27 -1 -37 14 -22 7 7 8 17 2 28 -9 15 -11 15 -16 -6z"/>
<path d="M4840 5880 c-12 -7 -12 -12 -2 -22 16 -16 15 -28 -2 -28 -7 0 -19 -7
-26 -15 -11 -13 -10 -21 1 -43 19 -39 40 -62 56 -62 24 0 13 29 -17 45 -19 10
-27 20 -24 30 4 8 11 12 18 8 24 -13 65 -59 66 -71 0 -7 7 -20 15 -28 12 -13
15 -12 25 6 6 11 8 30 4 44 -6 27 11 45 20 20 3 -8 10 -13 15 -10 11 7 12 126
1 126 -20 0 -40 -13 -40 -26 0 -8 -4 -14 -10 -14 -5 0 -10 -5 -10 -11 0 -8 4
-8 15 1 8 6 19 9 25 5 16 -10 12 -35 -7 -36 -10 0 -26 -2 -37 -4 -34 -7 -48 6
-43 39 2 17 -1 36 -9 43 -15 15 -15 15 -34 3z"/>
<path d="M4900 5880 c0 -5 5 -10 10 -10 6 0 10 5 10 10 0 6 -4 10 -10 10 -5 0
-10 -4 -10 -10z"/>
<path d="M1675 5840 c-4 -6 -13 -9 -19 -7 -7 3 -20 -7 -29 -23 -15 -25 -15
-28 -1 -34 11 -4 18 1 21 14 7 28 21 25 29 -5 6 -24 34 -36 34 -14 0 7 10 9
25 7 19 -4 25 -1 25 13 0 21 20 25 38 7 13 -13 16 0 4 18 -12 18 -54 28 -62
14 -6 -9 -14 -8 -33 4 -18 12 -27 14 -32 6z"/>
<path d="M2287 5823 c-9 -47 13 -43 28 5 4 16 2 22 -8 22 -8 0 -17 -12 -20
-27z"/>
<path d="M4654 5837 c-27 -15 -34 -27 -34 -64 0 -22 5 -33 14 -33 7 0 19 -7
26 -15 20 -24 59 -19 70 10 5 14 14 25 20 25 20 0 10 32 -17 54 -38 30 -56 35
-79 23z m30 -58 c-3 -5 -10 -7 -15 -3 -5 3 -7 10 -3 15 3 5 10 7 15 3 5 -3 7
-10 3 -15z"/>
<path d="M5891 5800 c0 -33 1 -34 10 -11 6 16 6 28 -1 35 -7 7 -10 -1 -9 -24z"/>
<path d="M2350 5800 c0 -5 5 -10 10 -10 6 0 10 5 10 10 0 6 -4 10 -10 10 -5 0
-10 -4 -10 -10z"/>
<path d="M1495 5790 c-4 -6 -14 -10 -24 -10 -19 0 -55 -69 -49 -96 5 -27 23
-16 28 18 l5 33 23 -23 c18 -18 26 -21 37 -12 8 7 19 9 25 5 5 -3 10 1 10 9 0
20 16 21 23 2 3 -8 -4 -21 -15 -28 -29 -19 -29 -87 1 -117 24 -24 29 -71 7
-71 -7 0 -16 -9 -19 -20 -4 -15 1 -22 19 -26 54 -14 46 -70 -8 -62 -19 2 -23
9 -24 38 0 19 -10 51 -22 70 -12 19 -22 47 -22 62 0 47 -51 62 -88 28 -25 -24
-29 -75 -9 -105 21 -32 18 -61 -8 -75 -55 -29 -53 -96 5 -150 32 -30 43 -84
15 -74 -9 4 -15 0 -15 -10 0 -11 9 -16 26 -16 17 0 28 -6 31 -19 5 -21 61 -35
78 -20 5 5 19 9 32 9 13 0 26 7 30 16 5 13 11 10 33 -14 39 -43 66 -49 90 -20
34 41 18 148 -22 148 -25 0 -68 44 -68 68 0 31 48 42 67 16 37 -53 78 -94 92
-94 31 1 62 35 63 70 2 61 -68 97 -117 60 -17 -13 -67 -9 -62 5 3 6 1 18 -4
26 -7 12 -9 12 -9 0 0 -11 -3 -12 -12 -3 -8 8 -8 15 -1 24 7 9 5 21 -7 41 -17
28 -17 28 -23 5 -10 -36 -16 -16 -10 30 5 34 12 46 34 58 24 12 29 21 29 50 0
29 -7 43 -35 68 -34 32 -45 56 -25 56 6 0 10 5 10 11 0 6 -7 8 -17 5 -9 -4
-25 1 -37 12 -27 24 -54 34 -61 22z m110 -180 c-5 -8 -11 -8 -17 -2 -6 6 -7
16 -3 22 5 8 11 8 17 2 6 -6 7 -16 3 -22z m-105 -130 c0 -5 -5 -12 -10 -15 -6
-4 -8 -11 -4 -16 7 -12 -14 -39 -32 -39 -17 0 -27 35 -16 57 10 18 62 28 62
13z m-7 -150 c16 -41 10 -48 -24 -30 -12 7 -19 21 -19 40 0 43 24 38 43 -10z
m292 10 c3 -5 1 -10 -4 -10 -6 0 -11 5 -11 10 0 6 2 10 4 10 3 0 8 -4 11 -10z
m-193 -86 c-3 -22 -9 -33 -16 -29 -6 3 -19 8 -28 11 -12 4 -18 17 -18 34 0 32
15 41 45 28 17 -7 20 -16 17 -44z"/>
<path d="M1575 5780 c3 -5 8 -10 11 -10 2 0 4 5 4 10 0 6 -5 10 -11 10 -5 0
-7 -4 -4 -10z"/>
<path d="M5073 5762 c-16 -13 -19 -22 -12 -39 4 -13 13 -23 18 -23 5 0 12 -11
15 -24 5 -21 11 -24 41 -22 19 2 41 9 50 16 21 17 19 73 -3 93 -24 22 -81 21
-109 -1z m77 -43 c0 -24 -23 -21 -28 4 -2 10 3 17 12 17 10 0 16 -9 16 -21z"/>
<path d="M1387 5750 c-9 -11 -28 -20 -42 -20 -14 0 -30 -9 -37 -20 -7 -11 -23
-20 -36 -20 -27 0 -39 -24 -23 -44 9 -11 8 -18 -5 -30 -13 -13 -14 -19 -4 -31
9 -11 9 -15 1 -15 -6 0 -11 5 -11 10 0 18 -25 10 -40 -13 -10 -14 -14 -33 -10
-51 5 -27 6 -28 20 -11 11 14 12 19 3 22 -17 6 -16 33 1 33 7 0 20 -10 28 -22
17 -26 48 -19 48 12 0 13 7 20 19 20 11 0 22 8 25 18 4 10 20 28 36 40 18 14
30 32 30 45 0 13 4 27 9 33 12 13 23 64 13 64 -4 0 -15 -9 -25 -20z m-47 -80
c0 -5 -4 -10 -10 -10 -5 0 -10 5 -10 10 0 6 5 10 10 10 6 0 10 -4 10 -10z"/>
<path d="M3071 5754 c0 -11 3 -14 6 -6 3 7 2 16 -1 19 -3 4 -6 -2 -5 -13z"/>
<path d="M4223 5735 c-13 -14 -33 -81 -27 -88 3 -2 16 -2 29 1 16 3 25 11 25
23 0 11 4 19 9 19 6 0 9 -18 8 -40 -2 -51 8 -59 38 -30 43 41 25 92 -40 116
-23 8 -34 8 -42 -1z"/>
<path d="M5889 5714 c-9 -19 -13 -38 -8 -46 5 -7 9 -24 10 -38 l1 -25 7 25 c5
14 4 33 -2 44 -5 11 -5 21 0 25 13 9 24 40 15 45 -4 2 -14 -11 -23 -30z"/>
<path d="M2980 5726 c0 -9 5 -16 10 -16 6 0 10 4 10 9 0 6 -4 13 -10 16 -5 3
-10 -1 -10 -9z"/>
<path d="M5051 5664 c-9 -21 -17 -25 -39 -22 -15 3 -34 8 -43 12 -12 5 -22 -3
-37 -28 -13 -23 -29 -36 -42 -36 -27 0 -60 35 -60 63 0 21 -4 24 -42 23 -48
-1 -56 -11 -57 -67 -1 -57 23 -75 117 -83 44 -3 93 -11 110 -17 24 -8 37 -7
61 6 27 13 31 21 31 55 0 21 4 41 9 44 10 7 20 76 11 76 -4 0 -12 -12 -19 -26z
m-64 -86 c-3 -8 -6 -5 -6 6 -1 11 2 17 5 13 3 -3 4 -12 1 -19z"/>
<path d="M892 5660 c0 -14 2 -19 5 -12 2 6 2 18 0 25 -3 6 -5 1 -5 -13z"/>
<path d="M5707 5605 c3 -14 9 -25 14 -25 5 0 8 -6 7 -12 -2 -7 6 -13 17 -13
15 0 21 8 23 33 3 31 -10 43 -23 21 -5 -7 -13 -5 -25 6 -16 15 -17 14 -13 -10z"/>
<path d="M2897 5606 c-4 -9 -3 -26 2 -38 l8 -22 6 24 c8 29 -7 61 -16 36z"/>
<path d="M1700 5568 c-35 -58 -18 -108 36 -108 46 0 64 17 64 60 0 30 -6 43
-26 59 -36 29 -51 26 -74 -11z m50 -50 c0 -16 -20 -7 -30 12 -10 19 -10 20 9
8 12 -7 21 -16 21 -20z"/>
<path d="M2556 5575 c4 -8 8 -15 10 -15 2 0 4 7 4 15 0 8 -4 15 -10 15 -5 0
-7 -7 -4 -15z"/>
<path d="M3221 5564 c0 -11 3 -14 6 -6 3 7 2 16 -1 19 -3 4 -6 -2 -5 -13z"/>
<path d="M3760 5553 c0 -13 5 -23 10 -23 13 0 13 11 0 30 -8 12 -10 11 -10 -7z"/>
<path d="M2350 5550 c0 -5 5 -10 11 -10 5 0 7 5 4 10 -3 6 -8 10 -11 10 -2 0
-4 -4 -4 -10z"/>
<path d="M3060 5548 c0 -5 9 -8 19 -8 11 0 22 3 24 8 3 4 -6 7 -19 7 -13 0
-24 -3 -24 -7z"/>
<path d="M5825 5540 c-4 -12 -5 -24 -2 -27 3 -2 8 5 12 17 4 12 5 24 2 27 -3
2 -8 -5 -12 -17z"/>
<path d="M2480 5529 c0 -14 -9 -34 -21 -45 -17 -15 -23 -16 -40 -6 -23 15 -25
3 -4 -24 14 -18 16 -18 29 -1 16 20 26 22 26 4 0 -8 9 -22 20 -32 18 -16 20
-16 20 -2 0 10 -5 17 -11 17 -5 0 -7 5 -3 11 3 6 0 15 -7 20 -11 6 -10 9 2 14
26 10 84 -29 82 -53 -2 -16 5 -22 30 -28 17 -3 37 -13 43 -22 8 -12 15 -12 32
-3 27 14 29 31 3 24 -14 -3 -21 3 -30 29 -12 32 -13 32 -27 13 -14 -19 -15
-19 -20 3 -6 20 -16 27 -37 23 -4 -1 -7 4 -6 11 3 26 -1 39 -11 33 -10 -6 -50
13 -62 30 -4 6 -8 -2 -8 -16z"/>
<path d="M5570 5543 c0 -5 9 -23 20 -40 11 -18 17 -40 13 -48 -5 -15 21 -44
40 -45 4 0 7 23 7 50 0 45 -3 52 -25 60 -14 5 -25 14 -25 20 0 5 -7 10 -15 10
-8 0 -15 -3 -15 -7z"/>
<path d="M2140 5505 c-8 -19 -20 -35 -27 -35 -20 0 -27 -28 -13 -45 10 -12 10
-18 0 -30 -14 -17 -7 -57 16 -92 16 -25 53 -30 72 -11 8 8 12 8 12 1 0 -6 -7
-16 -15 -23 -8 -7 -12 -16 -9 -21 3 -5 -2 -6 -10 -3 -19 7 -21 -7 -4 -24 15
-15 38 3 38 29 0 23 9 28 42 22 30 -6 32 -27 8 -75 -15 -32 -18 -33 -48 -12
-12 8 -22 12 -22 8 0 -5 -5 -3 -12 4 -16 16 -36 15 -54 -2 -16 -17 -18 -42 -4
-51 15 -9 8 -84 -7 -78 -13 5 -17 17 -14 41 3 18 -16 15 -23 -4 -6 -15 -8 -15
-25 0 -17 16 -19 16 -24 -4 -3 -11 -1 -18 4 -14 15 9 10 -26 -6 -43 -14 -14
-18 -14 -35 2 -18 16 -20 16 -20 2 0 -9 4 -18 9 -22 12 -7 -7 -65 -20 -65 -5
0 -7 -11 -3 -24 3 -13 2 -26 -3 -29 -11 -7 -4 -77 8 -77 5 0 9 9 9 19 0 23 15
34 50 39 13 2 26 5 28 7 7 7 -39 45 -48 40 -6 -4 -10 5 -10 18 0 16 11 34 30
48 16 13 30 30 30 37 0 6 5 12 10 12 13 0 13 -26 0 -51 -8 -15 -7 -23 4 -34
19 -20 27 -19 19 1 -4 12 5 27 30 49 24 21 38 44 43 71 8 42 28 69 44 59 13
-8 74 29 97 59 10 12 26 25 35 29 16 5 16 9 2 36 -9 19 -23 31 -35 31 -22 0
-23 4 -7 29 12 20 5 51 -12 51 -7 0 -9 -8 -5 -19 4 -13 -1 -27 -14 -40 -24
-24 -31 -18 -31 26 0 19 -5 44 -11 55 -16 30 7 71 38 65 17 -3 23 0 23 14 0
12 -7 19 -20 19 -11 0 -20 6 -20 14 0 13 -29 26 -61 26 -8 0 -21 -16 -29 -35z
m80 -15 c0 -23 -10 -26 -28 -8 -18 18 -15 28 8 28 13 0 20 -7 20 -20z m-83
-55 c-4 -8 -11 -15 -17 -15 -14 0 -13 27 3 33 16 6 21 1 14 -18z"/>
<path d="M2913 5517 c2 -6 12 -11 23 -12 10 -2 28 -6 38 -10 16 -7 17 -6 8 11
-11 20 -76 30 -69 11z"/>
<path d="M3240 5520 c0 -5 7 -10 16 -10 8 0 12 5 9 10 -3 6 -10 10 -16 10 -5
0 -9 -4 -9 -10z"/>
<path d="M2310 5500 c-8 -5 -12 -11 -9 -14 2 -3 11 -1 19 4 8 5 12 11 9 14 -2
3 -11 1 -19 -4z"/>
<path d="M2650 5495 c-8 -9 -8 -15 -2 -15 12 0 26 19 19 26 -2 2 -10 -2 -17
-11z"/>
<path d="M1222 5479 c1 -12 9 -24 16 -27 9 -3 13 3 10 19 -1 12 -9 24 -16 27
-9 3 -13 -3 -10 -19z"/>
<path d="M2345 5490 c-3 -5 -2 -10 4 -10 5 0 13 5 16 10 3 6 2 10 -4 10 -5 0
-13 -4 -16 -10z"/>
<path d="M2740 5481 c0 -12 6 -21 16 -21 9 0 14 7 12 17 -5 25 -28 28 -28 4z"/>
<path d="M1060 5461 c0 -11 4 -22 9 -25 4 -3 6 6 3 19 -5 30 -12 33 -12 6z"/>
<path d="M3657 5463 c-4 -3 -7 -11 -7 -17 0 -6 5 -5 12 2 6 6 9 14 7 17 -3 3
-9 2 -12 -2z"/>
<path d="M3590 5450 c0 -5 5 -10 10 -10 6 0 10 5 10 10 0 6 -4 10 -10 10 -5 0
-10 -4 -10 -10z"/>
<path d="M2036 5428 c-17 -24 -21 -48 -8 -48 17 1 36 20 37 40 2 30 -11 34
-29 8z"/>
<path d="M5528 5414 c28 -35 62 -45 62 -19 0 8 0 18 1 22 0 4 -20 13 -45 19
l-45 12 27 -34z"/>
<path d="M2330 5430 c0 -5 5 -10 11 -10 5 0 7 5 4 10 -3 6 -8 10 -11 10 -2 0
-4 -4 -4 -10z"/>
<path d="M2381 5424 c0 -11 3 -14 6 -6 3 7 2 16 -1 19 -3 4 -6 -2 -5 -13z"/>
<path d="M1214 5405 c-3 -13 -2 -42 4 -62 10 -37 10 -36 11 25 1 65 -4 79 -15
37z"/>
<path d="M3070 5406 c0 -31 6 -34 13 -6 3 11 1 23 -4 26 -5 3 -9 -6 -9 -20z"/>
<path d="M3520 5420 c-12 -7 -12 -12 -3 -21 10 -10 14 -9 19 5 8 22 2 27 -16
16z"/>
<path d="M1140 5405 c0 -8 5 -15 10 -15 6 0 10 7 10 15 0 8 -4 15 -10 15 -5 0
-10 -7 -10 -15z"/>
<path d="M3487 5380 c-3 -11 -1 -20 4 -20 5 0 9 9 9 20 0 11 -2 20 -4 20 -2 0
-6 -9 -9 -20z"/>
<path d="M2430 5375 c0 -8 2 -15 4 -15 2 0 6 7 10 15 3 8 1 15 -4 15 -6 0 -10
-7 -10 -15z"/>
<path d="M2901 5377 c19 -14 34 -67 19 -67 -5 0 -10 3 -10 8 0 4 -11 8 -25 8
-16 1 -25 -3 -25 -13 0 -9 6 -13 14 -10 20 8 36 -15 29 -41 -3 -13 -1 -22 6
-22 6 0 11 9 11 20 0 10 8 23 17 28 15 9 15 13 -1 56 -11 30 -24 46 -34 46
-15 -1 -16 -2 -1 -13z"/>
<path d="M5788 5383 c-10 -2 -18 -9 -18 -14 0 -14 16 -11 30 6 7 8 11 14 9 14
-2 -1 -12 -3 -21 -6z"/>
<path d="M4035 5348 c4 -13 11 -27 16 -32 15 -16 20 0 10 28 -13 32 -35 36
-26 4z"/>
<path d="M2453 5334 c-3 -10 -11 -22 -17 -26 -8 -6 -8 -10 0 -15 6 -5 13 -15
16 -23 3 -8 8 4 13 28 7 46 0 68 -12 36z"/>
<path d="M2741 5334 c0 -11 3 -14 6 -6 3 7 2 16 -1 19 -3 4 -6 -2 -5 -13z"/>
<path d="M3600 5335 c0 -8 7 -15 15 -15 8 0 15 7 15 15 0 8 -7 15 -15 15 -8 0
-15 -7 -15 -15z"/>
<path d="M4267 5330 c9 -11 19 -17 21 -15 6 6 -18 35 -29 35 -5 0 -1 -9 8 -20z"/>
<path d="M4080 5309 c0 -12 24 -16 45 -8 23 9 21 10 -17 13 -16 1 -28 -1 -28
-5z"/>
<path d="M5810 5299 c0 -14 3 -29 7 -32 9 -10 43 23 42 42 0 9 -4 6 -10 -9
l-10 -25 -14 25 -14 25 -1 -26z"/>
<path d="M1150 5301 c0 -5 5 -13 10 -16 6 -3 10 -2 10 4 0 5 -4 13 -10 16 -5
3 -10 2 -10 -4z"/>
<path d="M2843 5286 c4 -10 7 -31 7 -47 0 -19 5 -29 14 -29 23 0 31 22 12 32
-9 5 -16 18 -16 28 0 10 -5 22 -12 26 -8 5 -9 2 -5 -10z"/>
<path d="M1060 5285 c0 -13 30 -63 46 -76 19 -15 18 -13 -11 44 -16 32 -35 49
-35 32z"/>
<path d="M3761 5260 c-12 -17 -20 -36 -17 -43 2 -7 5 -5 5 4 1 22 27 43 36 29
10 -17 24 -2 18 20 -7 27 -15 25 -42 -10z"/>
<path d="M3377 5273 c-4 -3 -7 -11 -7 -17 0 -6 5 -5 12 2 6 6 9 14 7 17 -3 3
-9 2 -12 -2z"/>
<path d="M2360 5256 c0 -7 7 -19 15 -26 13 -10 18 -11 28 -1 9 10 8 15 -7 27
-25 18 -36 18 -36 0z"/>
<path d="M3145 5261 c-3 -6 -21 -11 -40 -11 -23 0 -42 -8 -59 -25 -14 -14 -32
-25 -40 -25 -8 0 -17 -13 -21 -30 -4 -17 -16 -35 -28 -41 -12 -7 -23 -13 -25
-14 -7 -5 30 -75 40 -75 6 0 20 -8 31 -17 18 -17 20 -17 39 10 13 19 29 27 48
27 20 0 33 7 41 23 16 29 28 37 62 37 22 0 27 5 27 24 0 13 -6 29 -14 36 -8 6
-16 28 -18 48 -3 37 -28 56 -43 33z"/>
<path d="M5725 5260 c-4 -6 -1 -10 4 -10 6 0 11 -11 11 -25 0 -18 5 -25 19
-25 17 0 36 -25 33 -42 -1 -5 5 -8 14 -8 11 0 13 -6 9 -19 -5 -16 -2 -18 15
-14 23 6 27 33 5 33 -8 0 -15 9 -15 19 0 11 -13 31 -30 44 -16 14 -30 30 -30
35 0 14 -28 23 -35 12z"/>
<path d="M1155 5240 c-4 -6 6 -10 22 -10 22 0 25 2 13 10 -19 12 -27 12 -35 0z"/>
<path d="M1950 5235 c0 -8 4 -15 10 -15 5 0 7 7 4 15 -4 8 -8 15 -10 15 -2 0
-4 -7 -4 -15z"/>
<path d="M5702 5230 c0 -14 2 -19 5 -12 2 6 2 18 0 25 -3 6 -5 1 -5 -13z"/>
<path d="M2020 5226 c0 -9 5 -16 10 -16 6 0 10 4 10 9 0 6 -4 13 -10 16 -5 3
-10 -1 -10 -9z"/>
<path d="M2480 5210 c0 -5 5 -10 10 -10 6 0 10 5 10 10 0 6 -4 10 -10 10 -5 0
-10 -4 -10 -10z"/>
<path d="M2620 5180 c-6 -10 -22 -20 -37 -22 -23 -2 -29 -9 -31 -33 -4 -35
-16 -45 -54 -45 -18 0 -28 -5 -28 -15 0 -26 30 -63 55 -69 14 -4 32 -20 41
-38 l17 -32 16 34 c11 24 27 38 49 46 22 7 38 22 50 45 14 28 22 33 45 31 34
-4 46 21 22 48 -10 11 -17 30 -17 44 0 23 -4 24 -59 24 -47 0 -61 -4 -69 -18z"/>
<path d="M3514 5190 c-6 -6 -22 -12 -35 -13 -13 -1 -36 -15 -51 -30 -21 -21
-33 -26 -53 -21 -34 8 -34 -21 0 -48 15 -11 25 -30 25 -44 0 -17 8 -27 25 -34
14 -5 28 -17 30 -25 16 -52 14 -50 41 -22 16 17 35 27 53 27 16 0 36 9 47 21
18 21 45 22 87 4 16 -7 18 -4 15 21 -2 22 -10 30 -35 36 -36 9 -44 18 -52 61
-4 20 -13 31 -26 33 -11 2 -27 12 -37 23 -19 24 -20 25 -34 11z"/>
<path d="M3967 5183 c-11 -10 -8 -43 3 -43 15 0 24 30 13 41 -5 5 -12 6 -16 2z"/>
<path d="M4200 5173 c0 -12 -8 -26 -17 -32 -20 -11 -22 -9 33 -26 12 -4 14
-12 10 -30 -5 -18 -2 -25 9 -25 9 0 14 8 12 23 -1 15 3 22 15 21 18 -2 34 29
23 46 -4 7 -12 7 -25 0 -26 -14 -28 -13 -44 18 -14 25 -15 25 -16 5z"/>
<path d="M1257 5166 c-6 -15 21 -40 46 -42 9 -1 17 5 17 13 0 10 -6 13 -16 9
-11 -4 -18 1 -21 14 -6 23 -19 26 -26 6z"/>
<path d="M4545 5170 c-3 -5 -1 -10 4 -10 6 0 11 5 11 10 0 6 -2 10 -4 10 -3 0
-8 -4 -11 -10z"/>
<path d="M1141 5134 c0 -11 3 -14 6 -6 3 7 2 16 -1 19 -3 4 -6 -2 -5 -13z"/>
<path d="M4335 5141 c-3 -5 -1 -12 5 -16 5 -3 10 1 10 9 0 18 -6 21 -15 7z"/>
<path d="M5892 5130 c7 -11 16 -16 21 -11 12 12 0 31 -19 31 -12 0 -12 -3 -2
-20z"/>
<path d="M1379 5121 c14 -25 28 -34 35 -22 3 5 -6 16 -20 26 -25 16 -25 16
-15 -4z"/>
<path d="M4113 5093 c4 -37 3 -43 -14 -43 -10 0 -19 -5 -19 -11 0 -6 9 -9 20
-6 16 4 20 0 20 -19 0 -15 -6 -24 -15 -24 -10 0 -15 -10 -15 -34 0 -27 -10
-44 -49 -85 -27 -28 -56 -51 -65 -51 -8 0 -23 -14 -32 -31 -15 -29 -14 -32 5
-50 11 -11 24 -31 27 -44 3 -13 15 -27 26 -30 23 -8 41 -50 33 -76 -4 -11 -2
-19 4 -19 6 0 11 8 11 18 0 38 29 62 74 62 23 0 47 5 52 10 6 6 37 13 70 16
57 5 99 27 88 46 -3 5 -13 7 -22 6 -9 -2 -18 7 -23 22 -7 24 -11 21 -13 -10
-1 -21 -30 -19 -34 3 -2 9 1 17 7 17 6 0 11 9 11 20 0 25 -16 26 -29 3 -13
-24 -22 -13 -24 30 -3 46 -12 54 -37 32 -19 -18 -20 -17 -26 13 -4 18 -11 32
-16 32 -5 0 -8 12 -6 28 2 18 8 27 20 26 10 -1 15 3 11 9 -3 5 -5 38 -4 72 2
50 -2 66 -19 86 l-21 24 4 -42z"/>
<path d="M4600 5110 c-9 -6 -10 -10 -3 -10 6 0 15 5 18 10 8 12 4 12 -15 0z"/>
<path d="M1170 5091 c0 -11 19 -24 38 -27 17 -3 15 7 -5 22 -21 16 -33 18 -33
5z"/>
<path d="M2245 5077 c-29 -31 -44 -59 -45 -84 0 -13 -6 -23 -14 -23 -20 0 -28
-28 -15 -53 10 -18 13 -19 23 -5 6 8 23 18 38 21 22 6 27 13 30 44 3 37 18 52
70 67 25 7 11 46 -16 44 -11 0 -28 2 -36 5 -8 3 -24 -4 -35 -16z"/>
<path d="M4312 5072 c2 -9 11 -17 21 -17 24 0 23 18 -3 27 -17 6 -21 4 -18
-10z"/>
<path d="M4388 5070 c10 -12 18 -16 21 -9 2 6 -3 15 -10 20 -24 15 -29 10 -11
-11z"/>
<path d="M1556 5060 c-11 -11 -16 -23 -13 -27 4 -4 13 -1 19 5 7 7 23 12 36
12 14 0 22 5 20 13 -7 20 -41 18 -62 -3z"/>
<path d="M3250 5046 c0 -20 -38 -46 -67 -46 -16 0 -27 -8 -33 -25 -9 -24 -14
-27 -50 -29 -24 -2 -25 -43 -1 -51 10 -3 24 -18 29 -33 14 -41 73 -97 83 -80
5 7 9 16 9 20 0 4 16 10 35 14 20 3 40 15 46 26 6 11 24 24 40 30 28 9 29 12
15 27 -9 10 -16 25 -16 35 0 9 -13 29 -29 44 -16 15 -31 38 -33 51 -3 27 -28
42 -28 17z"/>
<path d="M3827 5053 c-4 -3 -7 -15 -7 -25 0 -28 34 -19 38 10 3 21 -16 31 -31
15z"/>
<path d="M1473 5039 c-13 -5 -23 -13 -23 -18 0 -13 -100 -4 -117 11 -8 6 -16
8 -19 5 -11 -11 42 -36 91 -42 40 -6 54 -4 64 9 7 9 19 16 27 16 18 0 27 17
11 23 -6 2 -22 1 -34 -4z"/>
<path d="M5880 5025 c0 -7 8 -12 18 -10 9 2 20 4 25 4 18 2 4 16 -18 17 -15 1
-25 -4 -25 -11z"/>
<path d="M6030 5028 c0 -12 18 -18 34 -12 24 9 19 19 -9 19 -14 0 -25 -3 -25
-7z"/>
<path d="M2800 5005 c-10 -26 -15 -29 -61 -39 -19 -4 -28 -14 -32 -35 -5 -22
-13 -30 -39 -35 -18 -4 -28 -10 -23 -14 6 -4 21 -22 34 -39 12 -18 29 -33 36
-33 19 0 37 -34 29 -54 -3 -9 -1 -16 5 -16 6 0 11 9 11 20 0 27 47 70 76 70
17 0 24 6 24 19 0 24 36 51 67 51 29 0 31 30 3 37 -12 3 -27 18 -36 34 -8 16
-21 29 -28 29 -7 0 -19 7 -26 15 -18 21 -29 19 -40 -10z"/>
<path d="M3900 5016 c0 -8 5 -18 10 -21 6 -3 10 1 10 9 0 8 -4 18 -10 21 -5 3
-10 -1 -10 -9z"/>
<path d="M4660 5020 c0 -5 5 -10 10 -10 6 0 10 5 10 10 0 6 -4 10 -10 10 -5 0
-10 -4 -10 -10z"/>
<path d="M5980 5006 c0 -28 -16 -42 -42 -38 -10 2 -18 -2 -18 -7 0 -6 6 -11
14 -11 8 0 16 -5 18 -12 3 -8 12 -4 26 10 22 22 31 82 12 82 -5 0 -10 -11 -10
-24z"/>
<path d="M4016 5001 c-3 -5 1 -14 9 -21 13 -10 15 -9 15 9 0 21 -14 28 -24 12z"/>
<path d="M1880 4985 c0 -8 4 -15 10 -15 5 0 7 7 4 15 -4 8 -8 15 -10 15 -2 0
-4 -7 -4 -15z"/>
<path d="M5890 4984 c0 -8 5 -12 10 -9 6 4 8 11 5 16 -9 14 -15 11 -15 -7z"/>
<path d="M5500 4966 c0 -32 12 -39 44 -26 17 6 26 17 26 32 0 21 0 21 -15 2
-14 -18 -16 -18 -29 -1 -18 23 -26 21 -26 -7z"/>
<path d="M1069 4972 c-1 -4 -2 -11 -3 -17 -1 -5 -8 -23 -16 -38 -16 -32 -5
-60 24 -65 20 -4 56 -37 56 -51 0 -5 8 -12 17 -15 19 -8 33 9 33 40 0 12 7 24
15 28 21 8 19 42 -4 58 -10 8 -21 25 -23 38 -3 22 -8 25 -50 27 -27 1 -49 -1
-49 -5z m61 -72 c0 -11 -6 -20 -13 -20 -19 0 -27 10 -20 26 8 21 33 17 33 -6z"/>
<path d="M4266 4972 c-3 -6 -1 -14 5 -17 15 -10 25 3 12 16 -7 7 -13 7 -17 1z"/>
<path d="M4418 4963 c7 -3 16 -2 19 1 4 3 -2 6 -13 5 -11 0 -14 -3 -6 -6z"/>
<path d="M4896 4945 c-17 -27 -21 -55 -7 -55 5 0 12 -12 16 -27 6 -25 8 -26
17 -9 7 13 7 26 -1 44 -8 16 -9 28 -2 35 17 17 41 -1 41 -29 0 -15 3 -24 6
-21 4 3 15 2 25 -4 17 -9 19 -6 19 24 0 62 -82 92 -114 42z"/>
<path d="M2354 4945 c-4 -8 -15 -15 -25 -15 -18 0 -23 -11 -31 -65 -2 -11 -12
-21 -23 -23 -41 -8 -46 -21 -22 -64 32 -57 57 -67 90 -34 14 14 37 26 49 26
18 0 26 8 33 32 8 24 18 34 43 40 17 5 32 12 32 16 0 13 -70 72 -85 72 -7 0
-15 7 -19 15 -3 8 -12 15 -21 15 -9 0 -18 -7 -21 -15z"/>
<path d="M1901 4934 c0 -11 3 -14 6 -6 3 7 2 16 -1 19 -3 4 -6 -2 -5 -13z"/>
<path d="M4640 4946 c0 -2 7 -9 15 -16 12 -10 15 -10 15 4 0 9 -7 16 -15 16
-8 0 -15 -2 -15 -4z"/>
<path d="M5847 4914 c-8 -8 3 -34 14 -34 5 0 9 9 9 20 0 19 -11 26 -23 14z"/>
<path d="M5907 4913 c-3 -5 -2 -23 2 -39 6 -22 10 -25 15 -13 8 18 -8 67 -17
52z"/>
<path d="M1910 4900 c0 -5 -7 -10 -15 -10 -18 0 -20 -21 -3 -38 20 -20 26 -14
25 23 -1 19 -2 35 -4 35 -2 0 -3 -4 -3 -10z"/>
<path d="M3583 4876 c-32 -33 -30 -76 5 -109 32 -31 38 -32 58 -12 9 8 27 15
40 15 35 0 87 53 79 80 -4 12 -15 20 -29 20 -13 0 -29 7 -36 15 -20 25 -91 19
-117 -9z"/>
<path d="M4433 4884 c-9 -24 14 -41 48 -36 30 4 31 4 24 -28 -7 -30 -6 -31 13
-21 28 15 32 14 32 -9 0 -20 15 -25 44 -14 25 9 19 30 -16 59 -18 15 -36 35
-40 45 -8 22 -96 26 -105 4z"/>
<path d="M4717 4894 c-14 -14 -7 -35 10 -32 13 2 18 -4 18 -25 1 -16 7 -32 15
-37 22 -14 32 -1 15 22 -8 13 -12 32 -9 45 4 13 2 23 -4 23 -6 0 -17 2 -24 5
-8 3 -17 2 -21 -1z"/>
<path d="M5966 4881 c-4 -7 -5 -15 -2 -18 9 -9 19 4 14 18 -4 11 -6 11 -12 0z"/>
<path d="M1328 4863 c6 -2 18 -2 25 0 6 3 1 5 -13 5 -14 0 -19 -2 -12 -5z"/>
<path d="M2976 4808 c-16 -35 -21 -38 -46 -33 -25 6 -29 3 -35 -24 -8 -36 -35
-54 -69 -45 -13 3 -27 1 -30 -5 -4 -6 -1 -11 7 -11 8 0 17 -7 21 -15 9 -24 42
-18 80 15 22 20 49 32 79 36 41 6 48 4 70 -20 16 -17 35 -26 55 -26 35 0 48
-14 43 -49 -2 -16 2 -22 11 -19 16 5 24 58 9 58 -6 0 -11 11 -11 25 0 25 -14
33 -25 15 -16 -26 -75 6 -75 41 0 9 -11 25 -25 37 -14 12 -25 28 -25 36 0 30
-16 23 -34 -16z"/>
<path d="M4405 4839 c-4 -6 -13 -8 -21 -5 -8 3 -14 -1 -14 -10 0 -8 7 -17 15
-20 15 -6 45 17 45 35 0 14 -17 14 -25 0z"/>
<path d="M4622 4838 c6 -18 28 -21 28 -4 0 9 -7 16 -16 16 -9 0 -14 -5 -12
-12z"/>
<path d="M1330 4816 c0 -9 5 -16 10 -16 6 0 10 4 10 9 0 6 -4 13 -10 16 -5 3
-10 -1 -10 -9z"/>
<path d="M2062 4806 c-6 -15 -23 -27 -42 -31 -19 -4 -34 -15 -40 -29 -4 -13
-22 -29 -39 -36 -37 -15 -38 -21 -9 -63 50 -71 46 -70 89 -34 32 27 38 37 33
59 -6 29 23 68 51 68 20 0 19 25 -2 61 -21 35 -27 36 -41 5z"/>
<path d="M5500 4818 c0 -7 4 -19 9 -27 11 -17 25 3 17 24 -7 18 -26 20 -26 3z"/>
<path d="M2540 4787 c0 -37 -27 -67 -61 -67 -20 0 -29 -5 -29 -16 0 -13 6 -15
33 -10 87 19 95 19 113 -3 14 -16 30 -21 66 -21 43 0 48 -2 48 -22 0 -21 1
-21 17 -5 13 13 15 20 5 29 -7 7 -12 22 -12 35 0 28 -7 29 -36 2 -19 -18 -25
-19 -43 -7 -12 7 -21 19 -21 26 0 12 -63 82 -75 82 -3 0 -5 -10 -5 -23z"/>
<path d="M3407 4775 c-11 -15 -28 -25 -43 -25 -14 0 -27 -7 -31 -17 -3 -10
-15 -28 -26 -40 -26 -29 -6 -30 32 -3 40 30 95 16 147 -39 31 -32 42 -39 54
-30 13 9 12 12 -4 22 -42 26 -56 47 -50 71 4 16 1 27 -9 33 -8 4 -19 18 -26
31 -15 28 -22 27 -44 -3z"/>
<path d="M6035 4768 c9 -40 13 -48 26 -48 6 0 6 7 -1 19 -5 11 -10 29 -10 40
0 12 -5 21 -11 21 -7 0 -8 -12 -4 -32z"/>
<path d="M4300 4780 c0 -5 5 -10 11 -10 5 0 7 5 4 10 -3 6 -8 10 -11 10 -2 0
-4 -4 -4 -10z"/>
<path d="M1180 4731 c0 -34 3 -41 19 -41 27 0 38 20 17 32 -9 5 -16 15 -16 23
0 8 -4 17 -10 20 -6 4 -10 -10 -10 -34z"/>
<path d="M3855 4744 c-8 -26 -56 -55 -81 -48 -14 3 -24 -4 -36 -26 -13 -23
-24 -30 -48 -30 -26 0 -30 -3 -30 -28 0 -23 6 -30 33 -37 23 -7 37 -21 50 -47
10 -21 24 -38 32 -38 7 0 18 -7 25 -16 16 -19 120 -14 166 7 39 19 41 62 4 67
-32 5 -50 20 -50 43 0 10 -12 26 -27 36 -16 10 -31 22 -35 28 -12 15 -9 60 3
72 6 6 9 17 6 25 -4 9 -8 7 -12 -8z"/>
<path d="M4750 4727 c0 -23 18 -57 30 -57 16 0 11 26 -10 51 -17 21 -19 22
-20 6z"/>
<path d="M4810 4732 c0 -14 39 -46 47 -39 3 4 -2 16 -12 27 -19 21 -35 26 -35
12z"/>
<path d="M5547 4719 c-23 -27 -24 -144 -1 -153 45 -17 84 1 84 38 0 14 -3 17
-11 9 -15 -15 -58 -3 -65 19 -7 24 18 54 36 43 7 -4 9 -17 6 -31 -4 -13 -3
-24 2 -24 8 0 36 100 30 105 -2 1 -17 5 -34 8 -23 4 -35 1 -47 -14z"/>
<path d="M6112 4710 c0 -14 2 -19 5 -12 2 6 2 18 0 25 -3 6 -5 1 -5 -13z"/>
<path d="M4590 4695 c0 -8 5 -15 10 -15 6 0 10 7 10 15 0 8 -4 15 -10 15 -5 0
-10 -7 -10 -15z"/>
<path d="M1232 4685 c-25 -14 -30 -32 -6 -27 14 3 37 -38 38 -68 1 -8 9 -16
19 -18 27 -5 24 55 -4 63 -16 5 -20 13 -16 31 5 30 -1 34 -31 19z"/>
<path d="M4710 4690 c0 -5 5 -10 10 -10 6 0 10 5 10 10 0 6 -4 10 -10 10 -5 0
-10 -4 -10 -10z"/>
<path d="M5970 4689 c0 -5 5 -7 10 -4 6 3 10 8 10 11 0 2 -4 4 -10 4 -5 0 -10
-5 -10 -11z"/>
<path d="M6036 4688 c-13 -42 -13 -66 -1 -88 17 -29 16 -31 20 43 2 31 -1 57
-6 57 -5 0 -11 -6 -13 -12z"/>
<path d="M3237 4684 c-13 -13 -7 -24 14 -24 11 0 19 5 17 12 -5 14 -22 21 -31
12z"/>
<path d="M2142 4645 c-25 -25 -31 -39 -27 -57 7 -26 -25 -68 -51 -68 -32 0
-27 -31 11 -66 21 -19 39 -34 40 -34 1 0 18 15 38 34 21 20 37 45 39 62 2 23
12 33 49 51 37 18 48 28 53 54 8 41 2 46 -21 20 -24 -29 -40 -26 -58 9 -20 38
-32 37 -73 -5z"/>
<path d="M4845 4660 c-5 -8 1 -20 16 -31 30 -23 39 -5 11 23 -15 15 -22 17
-27 8z"/>
<path d="M3561 4644 c0 -11 3 -14 6 -6 3 7 2 16 -1 19 -3 4 -6 -2 -5 -13z"/>
<path d="M4542 4638 c-18 -18 -14 -31 15 -53 14 -11 34 -28 44 -37 27 -25 35
-23 48 14 8 22 14 29 22 21 12 -12 14 -42 4 -65 -5 -14 -2 -18 14 -18 12 0 21
-6 22 -12 0 -7 3 -29 6 -48 3 -19 5 -52 4 -72 0 -32 3 -38 20 -38 11 0 17 4
14 10 -4 6 -1 18 6 26 12 15 6 25 -23 36 -18 8 -12 68 7 68 8 0 15 6 15 14 0
8 10 16 22 18 30 4 34 30 7 46 -18 11 -24 11 -40 -4 -18 -16 -19 -15 -30 12
-6 16 -15 39 -20 52 -9 23 -24 29 -34 12 -3 -5 -17 -10 -31 -10 -13 0 -24 5
-24 10 0 6 -5 10 -10 10 -7 0 -7 -7 0 -21 11 -19 10 -20 -9 -9 -12 6 -26 8
-31 5 -6 -3 -10 -2 -10 4 0 5 5 13 10 16 12 7 13 25 2 25 -4 0 -13 -5 -20 -12z"/>
<path d="M2370 4631 c0 -11 26 -22 34 -14 12 12 5 23 -14 23 -11 0 -20 -4 -20
-9z"/>
<path d="M3586 4584 c-3 -9 -6 -27 -6 -40 0 -30 -41 -74 -70 -74 -20 0 -38
-25 -27 -36 3 -3 22 -1 42 5 40 11 77 50 86 94 11 49 -10 91 -25 51z"/>
<path d="M2296 4583 c-12 -12 -6 -33 9 -33 8 0 15 6 15 14 0 17 -14 28 -24 19z"/>
<path d="M2704 4565 c-5 -19 -12 -25 -35 -25 -19 0 -29 -5 -29 -14 0 -25 17
-27 45 -4 26 20 29 20 55 5 25 -15 40 -14 40 3 0 4 -16 20 -35 34 l-34 27 -7
-26z"/>
<path d="M5496 4572 c-7 -12 4 -52 15 -52 4 0 17 -9 27 -21 25 -26 65 -17 81
17 6 13 15 24 21 24 5 0 10 9 10 20 l0 21 -22 -21 c-28 -25 -62 -26 -98 0 -16
11 -31 17 -34 12z"/>
<path d="M3135 4559 c-11 -17 1 -21 15 -4 8 9 8 15 2 15 -6 0 -14 -5 -17 -11z"/>
<path d="M4514 4544 c-4 -16 -12 -23 -20 -20 -10 4 -14 -4 -14 -28 0 -40 -29
-71 -59 -61 -12 4 -21 2 -21 -4 0 -6 -7 -8 -15 -5 -19 8 -19 -5 0 -30 22 -29
18 -54 -10 -80 -14 -13 -25 -30 -25 -38 0 -8 -13 -27 -30 -41 -33 -30 -39 -57
-12 -57 29 -1 53 -26 59 -64 4 -29 10 -36 28 -36 12 0 28 7 35 15 7 8 20 15
29 15 40 0 92 23 129 58 22 20 48 43 56 50 22 18 21 23 -16 62 -18 19 -33 42
-34 50 -1 8 -2 25 -3 38 0 12 -8 22 -16 22 -18 0 -19 14 -4 42 15 28 3 35 -22
12 -21 -19 -22 -19 -15 2 4 12 2 33 -3 48 -7 17 -7 35 -1 51 6 16 6 25 0 25
-5 0 -13 -12 -16 -26z"/>
<path d="M4880 4560 c0 -5 5 -10 11 -10 5 0 7 5 4 10 -3 6 -8 10 -11 10 -2 0
-4 -4 -4 -10z"/>
<path d="M4200 4553 c-19 -3 -39 -9 -44 -14 -6 -5 -20 -9 -32 -9 -22 0 -39
-24 -28 -41 3 -5 13 -9 23 -9 26 0 51 -32 51 -64 0 -24 4 -27 26 -24 17 2 31
-4 43 -21 20 -26 41 -21 41 8 0 22 17 37 50 46 23 5 26 12 28 54 3 74 -29 89
-158 74z"/>
<path d="M3060 4525 c0 -8 8 -15 19 -15 10 0 24 7 31 15 11 13 8 15 -19 15
-21 0 -31 -5 -31 -15z"/>
<path d="M3170 4528 c0 -18 18 -34 28 -24 3 4 -2 14 -11 23 -16 16 -17 16 -17
1z"/>
<path d="M4565 4511 c-6 -11 20 -33 28 -24 4 3 7 10 7 14 0 11 -29 19 -35 10z"/>
<path d="M2300 4480 c0 -23 -5 -30 -19 -30 -25 0 -37 -18 -21 -33 9 -9 16 -6
31 12 23 28 56 23 94 -15 19 -19 32 -24 51 -20 18 5 26 2 30 -11 3 -10 8 -25
11 -33 4 -13 6 -12 14 3 7 12 6 28 -3 53 -10 27 -10 39 0 54 15 25 4 25 -28 0
-34 -27 -41 -25 -83 15 -46 45 -77 47 -77 5z"/>
<path d="M2900 4500 c0 -5 -7 -10 -15 -10 -8 0 -19 -9 -25 -20 -9 -17 -14 -18
-35 -8 -14 6 -28 8 -33 4 -9 -10 35 -46 57 -46 9 0 22 -9 29 -21 11 -16 16
-18 28 -9 18 16 18 30 -2 45 -19 14 -11 55 12 55 8 0 14 5 14 10 0 6 -7 10
-15 10 -8 0 -15 -4 -15 -10z"/>
<path d="M4040 4476 c0 -14 4 -27 9 -31 5 -3 9 8 9 25 -1 36 -18 41 -18 6z"/>
<path d="M6055 4490 c3 -5 8 -10 11 -10 2 0 4 5 4 10 0 6 -5 10 -11 10 -5 0
-7 -4 -4 -10z"/>
<path d="M2932 4452 c4 -35 38 -40 78 -12 16 12 30 24 30 28 0 4 -25 8 -56 9
-54 1 -55 1 -52 -25z"/>
<path d="M3611 4458 c7 -13 35 -51 63 -85 36 -44 58 -63 74 -63 33 0 25 34 -8
38 -36 5 -60 31 -60 63 0 23 -8 32 -41 49 l-40 21 12 -23z"/>
<path d="M4860 4460 c-6 -11 -8 -20 -5 -20 14 0 45 21 45 30 0 18 -29 10 -40
-10z"/>
<path d="M1367 4446 c10 -13 20 -20 21 -15 5 12 -17 39 -30 39 -5 0 -1 -11 9
-24z"/>
<path d="M4630 4461 c0 -3 11 -11 25 -18 21 -9 25 -9 25 5 0 11 -9 18 -25 18
-14 1 -25 -1 -25 -5z"/>
<path d="M4815 4450 c-3 -5 1 -10 9 -10 9 0 16 5 16 10 0 6 -4 10 -9 10 -6 0
-13 -4 -16 -10z"/>
<path d="M2550 4429 c0 -15 5 -20 22 -17 34 5 37 38 4 38 -20 0 -26 -5 -26
-21z"/>
<path d="M3210 4435 c0 -16 32 -36 73 -44 15 -3 28 -9 27 -13 0 -5 0 -26 0
-48 0 -43 -29 -80 -62 -80 -11 0 -18 -7 -18 -20 0 -20 11 -20 58 3 17 8 28 8
43 -1 11 -7 19 -8 19 -2 0 5 -5 10 -11 10 -11 0 -10 18 7 111 3 23 2 39 -5 43
-6 4 -11 15 -11 24 0 14 -7 17 -41 14 -22 -3 -46 1 -52 7 -15 15 -27 14 -27
-4z"/>
<path d="M3455 4411 c-6 -5 -21 -11 -35 -13 -33 -4 -34 -34 -1 -30 25 3 61 28
61 44 0 11 -14 10 -25 -1z"/>
<path d="M4033 4388 c-19 -29 -41 -40 -62 -28 -16 8 -24 7 -39 -8 -10 -10 -26
-21 -35 -25 -9 -3 -17 -14 -17 -23 0 -14 7 -16 39 -11 35 4 45 0 83 -31 24
-20 49 -45 56 -54 17 -23 45 -23 66 1 10 11 30 21 44 23 34 4 40 26 10 37 -30
11 -45 30 -50 61 -2 17 -10 26 -26 28 -12 2 -28 12 -35 23 -14 22 -23 24 -34
7z"/>
<path d="M4888 4393 c-20 -5 -22 -12 -9 -32 12 -19 41 -6 41 19 0 20 -2 21
-32 13z"/>
<path d="M4950 4391 c0 -5 11 -16 25 -25 19 -13 25 -13 25 -3 0 7 -5 18 -12
25 -14 14 -38 16 -38 3z"/>
<path d="M5998 4378 c-26 -41 -28 -56 -8 -51 10 3 20 12 23 21 3 10 8 25 12
35 10 25 -10 21 -27 -5z"/>
<path d="M4835 4371 c-3 -5 -1 -12 5 -16 5 -3 10 1 10 9 0 18 -6 21 -15 7z"/>
<path d="M1990 4359 c0 -5 -10 -14 -22 -19 -13 -5 -17 -9 -10 -9 7 -1 12 -13
12 -28 -1 -16 2 -41 6 -56 5 -24 1 -33 -25 -57 -35 -32 -33 -55 6 -65 33 -8
68 23 94 83 10 23 25 42 33 42 21 0 28 15 20 45 -5 19 -9 23 -19 15 -9 -8 -17
-6 -29 5 -9 9 -16 20 -16 24 0 4 -11 13 -25 19 -16 7 -25 8 -25 1z"/>
<path d="M2195 4341 c-9 -16 3 -31 26 -31 14 0 19 6 17 17 -4 20 -33 29 -43
14z"/>
<path d="M5860 4336 c0 -19 16 -37 43 -51 25 -13 25 -12 14 6 -6 10 -17 19
-23 19 -7 0 -10 8 -7 18 3 12 -1 19 -11 19 -9 0 -16 -5 -16 -11z"/>
<path d="M4900 4331 c0 -5 5 -13 10 -16 6 -3 10 -2 10 4 0 5 -4 13 -10 16 -5
3 -10 2 -10 -4z"/>
<path d="M2866 4315 c-3 -8 -17 -17 -31 -21 -30 -8 -35 -44 -6 -44 11 0 23 5
26 10 9 15 34 12 51 -5 21 -20 34 -19 34 3 0 17 -48 72 -62 72 -3 0 -8 -7 -12
-15z"/>
<path d="M1095 4310 c3 -5 10 -10 16 -10 5 0 9 5 9 10 0 6 -7 10 -16 10 -8 0
-12 -4 -9 -10z"/>
<path d="M1415 4299 c5 -13 14 -28 21 -34 7 -5 14 -19 17 -30 3 -17 5 -15 12
9 6 22 4 31 -5 34 -7 3 -21 13 -32 24 -20 20 -20 20 -13 -3z"/>
<path d="M2465 4290 c-3 -11 -13 -20 -21 -20 -8 0 -14 -9 -14 -20 0 -24 35
-28 44 -5 4 12 10 14 25 5 27 -14 31 -13 31 8 0 20 -29 52 -48 52 -6 0 -14 -9
-17 -20z"/>
<path d="M3814 4296 c-8 -20 -1 -47 11 -49 6 -1 11 13 13 31 3 32 -14 45 -24
18z"/>
<path d="M4935 4300 c-3 -5 -1 -10 4 -10 6 0 11 5 11 10 0 6 -2 10 -4 10 -3 0
-8 -4 -11 -10z"/>
<path d="M4980 4281 c0 -5 5 -13 10 -16 6 -3 10 -2 10 4 0 5 -4 13 -10 16 -5
3 -10 2 -10 -4z"/>
<path d="M2635 4223 c-55 -29 -62 -32 -73 -21 -6 6 -15 7 -21 4 -15 -10 5 -46
25 -46 12 0 15 -9 12 -37 -1 -21 -1 -39 2 -40 10 -5 50 10 50 18 0 5 11 9 25
9 32 0 34 27 3 32 -15 2 -24 11 -26 26 -4 25 15 55 29 46 5 -3 9 2 9 10 0 19
2 19 -35 -1z"/>
<path d="M4950 4219 c0 -5 5 -7 10 -4 6 3 10 8 10 11 0 2 -4 4 -10 4 -5 0 -10
-5 -10 -11z"/>
<path d="M3382 4209 c2 -6 8 -10 13 -10 5 0 11 4 13 10 2 6 -4 11 -13 11 -9 0
-15 -5 -13 -11z"/>
<path d="M4997 4213 c-4 -3 -7 -16 -7 -27 1 -21 1 -21 15 -2 8 11 15 23 15 28
0 10 -14 11 -23 1z"/>
<path d="M1110 4206 c0 -4 7 -14 15 -22 8 -9 15 -11 15 -6 0 5 -7 15 -15 22
-8 7 -15 9 -15 6z"/>
<path d="M2940 4200 c0 -6 12 -22 26 -35 23 -22 26 -30 20 -65 -7 -43 9 -55
34 -25 7 8 17 15 23 15 11 0 53 -43 60 -62 7 -20 34 10 43 47 l7 30 -23 -20
-23 -20 5 26 c4 23 1 26 -23 26 -38 0 -61 21 -57 52 2 21 -1 26 -19 26 -11 0
-25 3 -29 8 -11 11 -44 9 -44 -3z"/>
<path d="M2130 4183 c0 -9 -9 -27 -21 -39 -14 -15 -19 -29 -14 -43 7 -22 29
-28 40 -11 7 11 37 1 48 -17 4 -7 14 -13 20 -13 9 0 12 -11 9 -34 -6 -56 1
-62 34 -29 39 39 56 70 44 78 -16 10 -12 57 7 77 25 28 -6 24 -51 -7 -47 -32
-55 -31 -63 5 -8 40 -53 68 -53 33z"/>
<path d="M2748 4193 c-20 -5 -25 -43 -5 -43 13 1 57 34 57 44 0 7 -26 6 -52
-1z"/>
<path d="M3546 4175 c-9 -13 -16 -40 -16 -60 0 -24 -4 -35 -15 -35 -21 0 -19
-10 9 -44 l23 -30 28 49 c26 44 27 49 12 60 -21 15 -23 65 -2 65 8 0 15 5 15
10 0 20 -38 9 -54 -15z"/>
<path d="M3795 4180 c-22 -24 -52 -26 -77 -4 -15 14 -20 15 -33 4 -9 -7 -15
-20 -13 -28 4 -19 112 -26 139 -9 15 9 23 7 44 -13 19 -17 28 -21 36 -13 16
16 4 43 -18 43 -10 0 -24 9 -31 20 -7 11 -16 20 -21 20 -4 0 -16 -9 -26 -20z"/>
<path d="M3140 4151 c0 -29 18 -36 41 -15 15 13 16 19 7 26 -24 14 -48 9 -48
-11z"/>
<path d="M2383 4153 c-7 -2 -13 -14 -13 -25 0 -28 34 -19 38 10 3 22 -2 25
-25 15z"/>
<path d="M4892 4139 c-12 -19 -9 -39 7 -39 12 0 22 43 13 52 -4 4 -13 -2 -20
-13z"/>
<path d="M5880 4135 c0 -8 2 -15 4 -15 2 0 6 7 10 15 3 8 1 15 -4 15 -6 0 -10
-7 -10 -15z"/>
<path d="M3477 4125 c6 -17 25 -15 31 3 2 7 -5 12 -17 12 -14 0 -19 -5 -14
-15z"/>
<path d="M4977 4119 c-4 -15 -2 -19 9 -15 16 6 19 -5 3 -21 -12 -12 -1 -66 11
-58 5 3 11 1 15 -5 10 -17 24 -2 18 21 -4 14 -12 19 -24 16 -23 -6 -24 2 -3
31 12 18 13 26 4 37 -17 21 -27 19 -33 -6z"/>
<path d="M4940 4109 c0 -11 4 -18 10 -14 5 3 7 12 3 20 -7 21 -13 19 -13 -6z"/>
<path d="M5755 4113 c11 -11 26 -18 33 -15 17 6 15 22 -2 22 -8 0 -23 3 -33 7
-16 5 -16 4 2 -14z"/>
<path d="M3630 4095 c0 -8 5 -15 10 -15 6 0 10 7 10 15 0 8 -4 15 -10 15 -5 0
-10 -7 -10 -15z"/>
<path d="M4830 4078 c0 -36 4 -35 14 5 4 16 2 27 -4 27 -5 0 -10 -14 -10 -32z"/>
<path d="M1145 4089 c-4 -6 -5 -12 -2 -15 2 -3 7 2 10 11 7 17 1 20 -8 4z"/>
<path d="M2708 4093 c-20 -5 -22 -12 -9 -32 8 -12 12 -12 25 -2 9 8 16 20 16
27 0 14 -3 15 -32 7z"/>
<path d="M2370 4045 c-6 -8 -8 -20 -4 -26 5 -9 11 -7 21 6 23 33 9 51 -17 20z"/>
<path d="M5840 4049 c0 -5 5 -7 10 -4 6 3 10 8 10 11 0 2 -4 4 -10 4 -5 0 -10
-5 -10 -11z"/>
<path d="M4952 4024 c2 -9 14 -21 28 -26 l24 -9 -24 26 c-28 29 -33 31 -28 9z"/>
<path d="M5810 3984 c0 -8 5 -12 10 -9 6 4 19 1 28 -6 13 -11 12 -8 -2 9 -22
26 -36 28 -36 6z"/>
<path d="M2573 3964 c-7 -20 12 -63 33 -71 24 -9 83 24 95 53 13 35 8 38 -35
23 -28 -10 -39 -10 -48 -1 -17 17 -37 15 -45 -4z"/>
<path d="M5020 3956 c0 -16 24 -38 33 -30 7 7 -14 44 -25 44 -5 0 -8 -6 -8
-14z"/>
<path d="M5070 3960 c0 -5 5 -10 10 -10 6 0 10 5 10 10 0 6 -4 10 -10 10 -5 0
-10 -4 -10 -10z"/>
<path d="M2960 3935 c0 -18 10 -31 32 -45 31 -19 33 -19 63 -2 20 12 31 27 33
46 3 27 3 27 -25 13 -29 -14 -60 -12 -77 4 -17 16 -26 10 -26 -16z"/>
<path d="M1186 3932 c-3 -6 -1 -14 5 -17 15 -10 25 3 12 16 -7 7 -13 7 -17 1z"/>
<path d="M5818 3933 c7 -3 16 -2 19 1 4 3 -2 6 -13 5 -11 0 -14 -3 -6 -6z"/>
<path d="M5594 3885 c-4 -8 -10 -12 -15 -9 -21 13 -6 -28 21 -58 35 -38 36
-44 13 -52 -25 -10 -2 -25 29 -19 24 5 27 9 21 31 -4 17 -1 29 9 36 11 8 12
19 6 44 -8 29 -11 32 -25 21 -13 -11 -17 -10 -28 4 -15 21 -24 22 -31 2z"/>
<path d="M5710 3880 c0 -5 5 -10 10 -10 6 0 10 5 10 10 0 6 -4 10 -10 10 -5 0
-10 -4 -10 -10z"/>
<path d="M1244 3825 c-19 -14 -18 -14 4 -15 13 0 22 6 22 15 0 19 -1 19 -26 0z"/>
<path d="M5520 3704 c0 -8 5 -12 10 -9 6 4 8 11 5 16 -9 14 -15 11 -15 -7z"/>
<path d="M4350 3070 c0 -5 5 -10 10 -10 6 0 10 5 10 10 0 6 -4 10 -10 10 -5 0
-10 -4 -10 -10z"/>
<path d="M4100 1854 c0 -9 5 -14 12 -12 18 6 21 28 4 28 -9 0 -16 -7 -16 -16z"/>
<path d="M2241 14 c0 -11 3 -14 6 -6 3 7 2 16 -1 19 -3 4 -6 -2 -5 -13z"/>
</g>
</svg>
